<svg width="188" height="98" viewBox="0 0 188 98" fill="none" xmlns="http://www.w3.org/2000/svg">
<path d="M172.661 60.2648C172.731 60.9415 172.89 61.2386 172.772 61.4385C162.507 77.4017 145.273 88.3377 119.593 92.9903C113.065 94.1687 106.063 94.1382 98.9687 93.1225C83.6625 90.9347 71.6013 82.9089 68.3169 72.7209C66.6188 67.4436 66.2178 62.3273 69.4414 57.5885C73.0124 57.143 76.5963 56.8603 79.9987 56.2381C85.3517 55.2566 89.4293 53.1778 91.4785 49.6659C93.0197 47.0233 92.4969 44.5278 90.0122 43.156C86.8845 41.4288 83.423 41.5286 80.7905 42.6665C77.1047 44.2476 73.8083 46.241 70.6925 48.2992C68.6777 49.63 67.2841 51.3852 65.6485 52.9225C51.0467 51.7841 42.7799 42.8015 46.1739 31.698C48.0892 31.2965 50.1956 30.951 52.1567 30.4198C59.2119 28.5091 64.2288 25.2856 65.672 20.0613C66.2162 18.101 66.0647 15.941 63.0876 14.3136C60.783 13.058 57.1909 13.1435 53.9979 14.6024C48.9347 16.9255 45.7904 20.3235 43.2518 24.0261C42.3719 25.3154 41.6306 26.6533 40.8586 27.9145C18.3184 26.7142 -0.504165 13.6223 5.23879 0.228081C3.64902 0.390854 2.21879 0.258341 1.54116 0.6763C0.797624 1.13859 0.468216 2.06417 0.431715 2.82895C0.128247 10.0892 2.9415 16.8106 12.0752 22.2294C18.8868 26.2642 26.6608 28.9822 35.1178 30.6555C36.319 30.8959 37.5243 31.1534 38.7188 31.4197C38.8934 31.4589 39.0414 31.6017 39.5146 31.8834C39.588 32.6287 39.7329 33.5699 39.7345 34.4969C39.7625 45.9821 45.7381 51.8719 62.7971 56.8636C62.5418 57.9421 62.2858 59.0721 61.9919 60.2029C60.2471 66.8502 61.5835 73.4573 66.3495 79.991C74.1799 90.7427 89.6854 97.4587 107.291 97.7946C116.873 97.9759 125.78 96.7467 134.055 94.2347C154.103 88.1316 168.748 78.5215 176.508 64.509C176.919 63.7706 177.345 63.0404 177.786 62.3185C177.853 62.2226 178.07 62.175 178.84 61.8238C180.531 64.6891 180.772 67.4481 181.25 70.1848C181.716 72.8703 182.017 75.5594 182.421 78.4694C185.666 78.151 186.694 76.953 187.058 75.4687C187.47 73.7602 188.063 72.0049 187.744 70.2691C186.903 65.6087 185.944 60.9335 184.411 56.3051C183.203 52.6225 180.015 51.6691 175.962 53.4212C167.389 57.1499 158.85 60.9208 150.355 64.7166C149.02 65.3117 147.956 66.1414 146.386 67.0935C149.526 68.6573 151.382 67.8965 153.18 67.2657C159.522 65.0269 165.829 62.7459 172.693 60.2899L172.661 60.2648ZM59.8566 17.0181C60.0606 22.9197 55.3614 26.7372 47.5653 27.1186C50.5211 23.0808 53.0888 19.2317 59.8566 17.0181ZM86.3032 45.4501C85.781 50.5346 81.2476 53.0008 73.3927 52.6452C76.6164 49.3142 79.8059 46.3788 86.3032 45.4501Z" fill="#D0E2EE"/>
</svg>
