<svg width="176" height="85" viewBox="0 0 176 85" fill="none" xmlns="http://www.w3.org/2000/svg">
<path d="M164.952 35.1683C168.375 42.7026 162.967 51.6987 171.417 58.1325C172.083 55.9455 172.745 54.6269 172.853 53.2865C173.889 38.4221 174.937 23.573 175.693 8.67673C175.814 6.25208 175.278 2.6889 173.681 1.47973C170.727 -0.736951 168.213 1.87052 166.082 4.29553C159.525 11.8292 152.86 19.2773 146.193 26.8203C149.698 28.7641 155.752 26.0964 164.355 18.8172C158.756 49.3599 129.242 66.4149 101.145 54.9384C102.428 52.2131 103.798 49.5426 104.991 46.7891C108.475 38.6899 109.376 30.4438 106.495 21.9109C104.375 15.6334 100.41 11.2705 93.7264 10.3644C86.8422 9.43944 82.2497 13.3125 78.7199 18.7564C71.0826 30.5283 72.6807 43.6332 82.9374 53.415C84.2079 54.6257 85.2853 56.0223 86.8448 57.7958C73.2671 69.2709 58.1645 75.9092 40.7614 75.3716C13.9251 74.5553 4.75269 53.2167 5.08545 34.3953C5.13652 32.068 5.59315 29.752 6.03877 25.9948C1.58538 29.9311 0.976418 34.11 0.42643 38.1762C-1.79899 54.1788 7.63198 71.825 22.1457 79.0509C31.4334 83.6649 41.2441 85.0504 51.4394 83.3069C66.4284 80.724 79.9348 74.8864 91.3584 64.6376C92.4844 63.6386 93.67 62.69 95.2068 61.418C108.518 65.8418 122.025 68.4643 135.96 63.2527C149.573 58.1793 156.67 46.3063 164.947 35.1948L164.952 35.1683ZM93.1133 51.2882C80.5283 44.1439 77.0751 32.0965 84.56 22.1874C86.3255 19.839 89.8001 17.7538 92.6484 17.5226C96.693 17.2001 98.6773 20.7941 99.6643 24.5932C102.211 34.4433 99.413 42.9117 93.1244 51.3036L93.1133 51.2882Z" fill="#D0E2EE"/>
</svg>
