<svg width="104" height="47" viewBox="0 0 104 47" fill="none" xmlns="http://www.w3.org/2000/svg">
<path d="M0.0589948 30.6854C13.6844 43.5462 29.6071 42.9135 46.1162 38.9104C63.0906 34.794 76.3336 25.2865 86.7303 10.3563C76.9197 12.4862 68.0897 17.505 56.6926 15.391C58.7797 13.9828 59.6465 12.9588 60.6536 12.7938C71.1079 11.1261 80.8034 7.33262 90.2035 2.61644C91.3912 2.01503 92.627 1.44459 93.9138 1.13114C97.4075 0.287381 99.5152 1.67923 100.202 5.16807C100.371 6.03775 100.392 6.93228 100.355 7.82497C100.074 16.2048 99.8905 24.5876 103.233 32.6876C95.595 29.4042 94.1244 22.7083 93.7355 15.339C88.008 20.7199 83.1035 26.1657 77.3774 30.5545C60.5616 43.4377 41.5777 49.3085 20.4325 45.4365C14.9338 44.4299 9.63183 41.5239 4.62888 38.7942C1.03598 36.8354 0.824929 35.4144 0.0495077 30.6753L0.0589948 30.6854Z" fill="#D0E2EE"/>
</svg>
