<svg width="118" height="118" viewBox="0 0 118 118" fill="none" xmlns="http://www.w3.org/2000/svg">
<path d="M40.7381 68.8224C40.7379 68.4499 40.5899 68.0928 40.3264 67.8295C40.063 67.5662 39.7058 67.4183 39.3334 67.4183H15.4524C15.08 67.4183 14.7229 67.5663 14.4596 67.8296C14.1963 68.0929 14.0483 68.45 14.0483 68.8224C14.0483 69.1948 14.1963 69.5519 14.4596 69.8152C14.7229 70.0785 15.08 70.2265 15.4524 70.2265H39.3334C39.7058 70.2265 40.063 70.0786 40.3264 69.8153C40.5899 69.552 40.7379 69.1948 40.7381 68.8224Z" fill="#2D4356"/>
<path d="M33.0118 73.0359H21.7738C21.4016 73.0359 21.0446 73.1838 20.7814 73.447C20.5182 73.7102 20.3704 74.0671 20.3704 74.4393C20.3704 74.8115 20.5182 75.1685 20.7814 75.4317C21.0446 75.6949 21.4016 75.8427 21.7738 75.8427H33.0118C33.3841 75.8427 33.741 75.6949 34.0042 75.4317C34.2674 75.1685 34.4152 74.8115 34.4152 74.4393C34.4152 74.0671 34.2674 73.7102 34.0042 73.447C33.741 73.1838 33.3841 73.0359 33.0118 73.0359Z" fill="#6296B7"/>
<path d="M102.548 67.4183H78.6666C78.2943 67.4183 77.9371 67.5663 77.6738 67.8296C77.4105 68.0929 77.2626 68.45 77.2626 68.8224C77.2626 69.1948 77.4105 69.5519 77.6738 69.8152C77.9371 70.0785 78.2943 70.2265 78.6666 70.2265H102.548C102.92 70.2265 103.277 70.0785 103.54 69.8152C103.804 69.5519 103.952 69.1948 103.952 68.8224C103.952 68.45 103.804 68.0929 103.54 67.8296C103.277 67.5663 102.92 67.4183 102.548 67.4183Z" fill="#2D4356"/>
<path d="M96.2262 73.0359H84.9881C84.6159 73.0359 84.2589 73.1838 83.9958 73.447C83.7326 73.7102 83.5847 74.0671 83.5847 74.4393C83.5847 74.8115 83.7326 75.1685 83.9958 75.4317C84.2589 75.6949 84.6159 75.8427 84.9881 75.8427H96.2262C96.5984 75.8427 96.9554 75.6949 97.2186 75.4317C97.4817 75.1685 97.6296 74.8115 97.6296 74.4393C97.6296 74.0671 97.4817 73.7102 97.2186 73.447C96.9554 73.1838 96.5984 73.0359 96.2262 73.0359Z" fill="#6296B7"/>
<path d="M14.4105 58.4599C14.6605 58.7361 15.01 58.9017 15.3821 58.9204C15.7542 58.939 16.1185 58.8091 16.3949 58.5593L29.4403 46.7584C29.5163 46.7099 29.6029 46.6807 29.6927 46.6734C29.7825 46.6661 29.8727 46.6809 29.9555 46.7166L36.8531 51.398C37.0056 51.5021 37.1771 51.5751 37.3579 51.6128C37.5386 51.6506 37.725 51.6523 37.9064 51.618C38.0878 51.5836 38.2607 51.5138 38.4151 51.4126C38.5695 51.3114 38.7024 51.1807 38.8063 51.0281C38.9102 50.8754 38.9829 50.7038 39.0204 50.523C39.0579 50.3422 39.0594 50.1558 39.0247 49.9745C38.9901 49.7931 38.9201 49.6203 38.8186 49.4661C38.7172 49.3118 38.5863 49.1791 38.4335 49.0754L35.4154 47.0225L40.2422 41.8753C40.2747 41.8524 40.3127 41.8385 40.3523 41.8349C40.3919 41.8314 40.4318 41.8383 40.4679 41.8551L45.8551 45.9936C46.1523 46.2163 46.5249 46.3137 46.8931 46.2648C47.2612 46.216 47.5956 46.0248 47.8244 45.7323C47.9366 45.5859 48.0188 45.4188 48.0664 45.2406C48.1139 45.0624 48.1259 44.8765 48.1017 44.6937C48.0774 44.5108 48.0173 44.3345 47.9249 44.1749C47.8325 44.0153 47.7095 43.8754 47.563 43.7633L45.8633 42.4629L59.699 28.1247L65.8867 34.5895C66.1324 34.8465 66.4664 35.0006 66.8213 35.0209C67.1762 35.0412 67.5256 34.9262 67.799 34.699L69.0735 33.6409L80.8932 46.0817L79.2778 47.4567C79.1374 47.5762 79.0219 47.7223 78.9379 47.8865C78.8539 48.0508 78.8031 48.2299 78.7884 48.4138C78.7737 48.5977 78.7953 48.7826 78.8521 48.9581C78.9089 49.1336 78.9997 49.2962 79.1194 49.4366C79.363 49.717 79.7068 49.8908 80.0771 49.9205C80.4473 49.9502 80.8145 49.8336 81.0997 49.5957L85.9388 45.4768C85.9906 45.4666 86.0441 45.469 86.0947 45.4839C86.1453 45.4988 86.1916 45.5256 86.2297 45.5622C86.2297 45.5622 101.581 60.0117 101.585 60.0152C101.858 60.2664 102.219 60.4008 102.59 60.3894C102.961 60.3781 103.313 60.222 103.57 59.9545C103.697 59.8203 103.796 59.6625 103.861 59.4901C103.926 59.3177 103.957 59.1342 103.952 58.9499C103.946 58.7657 103.904 58.5843 103.829 58.4162C103.753 58.248 103.645 58.0965 103.511 57.9701L88.2024 43.5631C87.6911 43.0518 87.0169 42.7356 86.2969 42.6695C85.5768 42.6033 84.8563 42.7913 84.2604 43.2009C84.224 43.2276 83.034 44.2558 83.034 44.2558L70.2052 30.7539C69.9597 30.4956 69.6253 30.3403 69.2697 30.3193C68.914 30.2982 68.5636 30.4131 68.2895 30.6407L67.0116 31.7015L61.6854 26.138C61.4298 25.8694 61.1224 25.6554 60.7818 25.509C60.4411 25.3625 60.0743 25.2867 59.7035 25.2861C59.3328 25.2854 58.9657 25.36 58.6246 25.5052C58.2834 25.6505 57.9753 25.8634 57.7188 26.1311L43.6485 40.7124L42.1374 39.596C41.5471 39.1698 40.8226 38.9714 40.0975 39.0374C39.3724 39.1034 38.6957 39.4294 38.192 39.9552L33.0915 45.3952L31.4782 44.3567C30.8758 43.9847 30.1702 43.815 29.4645 43.8724C28.7588 43.9298 28.0899 44.2112 27.5554 44.6756L14.51 56.4765C14.2338 56.7263 14.0681 57.0756 14.0495 57.4476C14.0308 57.8195 14.1607 58.1837 14.4105 58.4599Z" fill="#2D4356"/>
<path d="M30.321 52.2585C30.0502 52.0513 29.7132 51.9498 29.3731 51.9729C29.0329 51.996 28.7128 52.1421 28.4725 52.384L22.885 58.0023C22.625 58.267 22.4804 58.6238 22.4827 58.9947C22.485 59.3657 22.6339 59.7207 22.8971 59.9821C23.1602 60.2436 23.5162 60.3903 23.8871 60.3902C24.2581 60.3901 24.6139 60.2432 24.8769 59.9816L29.5953 55.2387L32.1593 57.196C32.4554 57.4213 32.8288 57.5199 33.1976 57.4702C33.5663 57.4205 33.9003 57.2264 34.1262 56.9307C34.352 56.635 34.4513 56.2618 34.4023 55.8929C34.3532 55.5241 34.1598 55.1897 33.8645 54.9633L30.321 52.2585ZM84.7933 50.9151L82.3034 53.1114C82.024 53.3577 81.854 53.7049 81.8306 54.0766C81.8073 54.4483 81.9326 54.814 82.1789 55.0934C82.4252 55.3727 82.7724 55.5427 83.1441 55.5661C83.5158 55.5894 83.8815 55.4641 84.1609 55.2178L85.6987 53.8628L89.0679 56.9803C89.343 57.2299 89.7049 57.3616 90.0761 57.3473C90.4472 57.333 90.798 57.1738 91.053 56.9038C91.306 56.6304 91.44 56.2676 91.4256 55.8954C91.4112 55.5231 91.2495 55.1719 90.9762 54.9188L86.6761 50.9398C86.4212 50.7029 86.0874 50.5693 85.7394 50.5647C85.3915 50.5602 85.0543 50.6851 84.7933 50.9151ZM58.6262 38.68L59.4561 37.7845L61.5776 39.6756C61.7153 39.7984 61.8757 39.8928 62.0499 39.9536C62.224 40.0143 62.4084 40.0402 62.5926 40.0297C62.7767 40.0192 62.957 39.9725 63.1231 39.8923C63.2892 39.8122 63.4379 39.7001 63.5606 39.5624C63.6834 39.4248 63.7779 39.2643 63.8386 39.0902C63.8994 38.916 63.9253 38.7316 63.9147 38.5475C63.9042 38.3633 63.8576 38.1831 63.7774 38.017C63.6972 37.8509 63.5851 37.7022 63.4475 37.5794L60.2978 34.7706C60.023 34.5261 59.6634 34.399 59.2961 34.4165C58.9287 34.434 58.5828 34.5947 58.3326 34.8642L56.5657 36.7704C56.3124 37.0437 56.1781 37.4063 56.1923 37.7786C56.2064 38.1508 56.3679 38.5022 56.6411 38.7554C56.9144 39.0087 57.277 39.143 57.6493 39.1288C58.0215 39.1147 58.3729 38.9532 58.6262 38.68ZM67.1384 41.8476C67.0079 41.9779 66.9044 42.1327 66.8338 42.3031C66.7632 42.4735 66.7269 42.6562 66.7269 42.8406C66.7269 43.025 66.7632 43.2077 66.8338 43.3781C66.9044 43.5484 67.0079 43.7032 67.1384 43.8336L69.9479 46.6435C70.2132 46.9033 70.5698 47.0488 70.9411 47.0488C71.3124 47.0488 71.669 46.9033 71.9343 46.6435C72.0648 46.513 72.1683 46.3581 72.2389 46.1877C72.3096 46.0172 72.3459 45.8345 72.3459 45.6499C72.3459 45.4654 72.3096 45.2827 72.2389 45.1122C72.1683 44.9418 72.0648 44.7869 71.9343 44.6564L69.1248 41.8476C68.8613 41.5844 68.5041 41.4365 68.1316 41.4365C67.7591 41.4365 67.4019 41.5844 67.1384 41.8476Z" fill="#6296B7"/>
<path d="M94.342 40.3911C94.4852 40.5073 94.6499 40.5941 94.8267 40.6467C95.0035 40.6992 95.189 40.7164 95.3724 40.6972C95.5559 40.6781 95.7337 40.623 95.8959 40.5351C96.058 40.4472 96.2013 40.3282 96.3174 40.1849C97.154 39.0894 97.6542 37.7744 97.7571 36.3998C97.86 35.0253 97.5612 33.6504 96.8971 32.4426C96.2329 31.2347 95.232 30.2459 94.0162 29.5965C92.8004 28.9471 91.422 28.665 90.0488 28.7846C89.1706 28.8654 88.3175 29.1213 87.5398 29.5373C86.7621 29.9533 86.0757 30.5209 85.5211 31.2066C85.4049 31.3499 85.3181 31.5147 85.2657 31.6915C85.2132 31.8684 85.1961 32.0538 85.2153 32.2373C85.2345 32.4208 85.2896 32.5987 85.3776 32.7608C85.4655 32.923 85.5846 33.0662 85.7279 33.1824C85.8712 33.2985 86.036 33.3853 86.2128 33.4378C86.3897 33.4902 86.5751 33.5073 86.7586 33.4881C86.9421 33.4689 87.1199 33.4138 87.2821 33.3258C87.4442 33.2379 87.5875 33.1188 87.7036 32.9755C88.0242 32.58 88.4208 32.2528 88.87 32.0133C89.3193 31.7738 89.812 31.6268 90.319 31.5811C91.1411 31.5147 91.965 31.6859 92.6926 32.0744C93.4202 32.4629 94.0207 33.0524 94.4228 33.7726C94.8249 34.4927 95.0115 35.3133 94.9604 36.1365C94.9094 36.9597 94.6228 37.7509 94.1349 38.4159C94.0187 38.5592 93.9319 38.7239 93.8795 38.9007C93.827 39.0776 93.8099 39.263 93.8291 39.4464C93.8484 39.6298 93.9036 39.8077 93.9916 39.9698C94.0796 40.1319 94.1986 40.275 94.342 40.3911ZM102.185 41.1226C102.468 41.119 102.743 41.0322 102.976 40.8731C103.209 40.714 103.391 40.4897 103.497 40.2281C103.63 39.8803 103.62 39.4938 103.469 39.1535C103.317 38.8132 103.037 38.547 102.689 38.4135L100.908 37.7297C100.561 37.5961 100.174 37.6062 99.8338 37.7576C99.4935 37.9091 99.2274 38.1895 99.0938 38.5372C98.9603 38.8848 98.9704 39.2713 99.1218 39.6116C99.2732 39.9519 99.5536 40.2181 99.9013 40.3516C100.638 40.6762 101.403 40.9343 102.185 41.1226ZM98.3175 32.0585C98.5159 32.3724 98.829 32.5963 99.1902 32.6824C99.5513 32.7686 99.9318 32.7102 100.25 32.5198L101.864 31.5262C102.182 31.331 102.408 31.0178 102.495 30.6555C102.581 30.2932 102.52 29.9114 102.325 29.5942C102.129 29.2769 101.816 29.0503 101.454 28.964C101.091 28.8777 100.71 28.9389 100.392 29.1341L98.7785 30.127C98.4613 30.322 98.2345 30.635 98.148 30.9973C98.0616 31.3595 98.1226 31.7412 98.3175 32.0585Z" fill="#2D4356"/>
<path d="M97.749 43.5815L99.0885 44.6434C99.3819 44.8713 99.7529 44.9751 100.122 44.9323C100.491 44.8895 100.829 44.7036 101.062 44.4146C101.177 44.2701 101.262 44.1045 101.312 43.9271C101.363 43.7497 101.378 43.5641 101.357 43.3809C101.335 43.1977 101.278 43.0205 101.189 42.8593C101.099 42.6982 100.978 42.5564 100.834 42.4419L99.4939 41.3805C99.3493 41.2659 99.1837 41.1809 99.0063 41.1304C98.8289 41.0798 98.6434 41.0647 98.4601 41.0859C98.2769 41.1071 98.0997 41.1641 97.9385 41.2538C97.7774 41.3435 97.6355 41.464 97.5209 41.6085C97.4063 41.7531 97.3213 41.9187 97.2708 42.0961C97.2202 42.2735 97.2051 42.4591 97.2263 42.6423C97.2475 42.8255 97.3045 43.0027 97.3942 43.1639C97.4839 43.325 97.6044 43.4669 97.749 43.5815ZM100.622 33.7218C100.259 33.7466 99.9197 33.9114 99.6757 34.1816C99.4317 34.4518 99.3022 34.8062 99.3145 35.1701C99.3268 35.5339 99.4799 35.8788 99.7415 36.1319C100.003 36.385 100.353 36.5266 100.717 36.5269C100.749 36.5269 102.644 36.3983 102.644 36.3983C102.828 36.3859 103.008 36.3373 103.173 36.2553C103.338 36.1733 103.486 36.0596 103.607 35.9205C103.729 35.7815 103.821 35.6199 103.88 35.445C103.939 35.2701 103.963 35.0853 103.95 34.9011C103.938 34.717 103.889 34.5372 103.807 34.372C103.724 34.2067 103.611 34.0593 103.471 33.9381C103.332 33.8169 103.17 33.7243 102.995 33.6657C102.821 33.607 102.636 33.5834 102.452 33.5963L100.622 33.7218ZM96.1116 29.0384C96.2551 29.165 96.4226 29.2615 96.6041 29.3221C96.7857 29.3827 96.9775 29.4061 97.1683 29.391C97.3591 29.3759 97.5449 29.3226 97.7146 29.2342C97.8844 29.1458 98.0346 29.0241 98.1563 28.8765L99.1853 27.5876C99.4145 27.2786 99.5123 26.8914 99.4573 26.5106C99.4023 26.1298 99.199 25.7861 98.8917 25.5546C98.6003 25.3223 98.2287 25.2153 97.8585 25.2571C97.4884 25.2988 97.1499 25.4859 96.9176 25.7771L95.8881 27.067C95.6668 27.3621 95.5668 27.7306 95.6083 28.0971C95.6499 28.4636 95.8299 28.8003 96.1116 29.0384Z" fill="#6296B7"/>
<path d="M84.5142 27.5835C84.7131 27.8971 85.0269 28.1201 85.3884 28.205C85.7498 28.2898 86.1302 28.2296 86.4478 28.0373C86.6046 27.9402 86.7408 27.8132 86.8485 27.6634C86.9562 27.5136 87.0333 27.3441 87.0755 27.1645C87.1176 26.9849 87.1238 26.7988 87.0939 26.6167C87.064 26.4347 86.9985 26.2604 86.9011 26.1037L85.8833 24.4626C85.6868 24.146 85.3727 23.9205 85.01 23.8356C84.6473 23.7506 84.2657 23.8133 83.9491 24.0097C83.6326 24.2061 83.4071 24.5203 83.3221 24.883C83.2372 25.2457 83.2999 25.6273 83.4963 25.9438L84.5142 27.5835ZM92.844 27.4912C93.1965 27.609 93.5812 27.5834 93.915 27.4202C94.2489 27.2569 94.5052 26.969 94.6287 26.6185L95.2508 24.8059C95.3717 24.4535 95.3476 24.0676 95.1839 23.733C95.0202 23.3983 94.7302 23.1425 94.3778 23.0216C94.0255 22.9008 93.6395 22.9249 93.3049 23.0886C92.9703 23.2523 92.7144 23.5423 92.5936 23.8946L91.9715 25.7075C91.9117 25.8819 91.8868 26.0664 91.8982 26.2505C91.9097 26.4345 91.9573 26.6145 92.0383 26.7801C92.1193 26.9457 92.2322 27.0938 92.3704 27.2158C92.5087 27.3378 92.6696 27.4314 92.844 27.4912Z" fill="#2D4356"/>
<path d="M81.8465 30.3828C82.1294 30.6234 82.4953 30.7437 82.8658 30.7176C83.2362 30.6916 83.5817 30.5214 83.8282 30.2435C83.9492 30.1044 84.0415 29.9428 84.1 29.768C84.1585 29.5931 84.182 29.4085 84.169 29.2246C84.1561 29.0407 84.1071 28.8611 84.0247 28.6962C83.9423 28.5312 83.8282 28.3841 83.6889 28.2633L82.3973 27.1415C82.2582 27.0201 82.0965 26.9274 81.9216 26.8687C81.7466 26.8099 81.5617 26.7862 81.3776 26.7989C81.1934 26.8116 81.0136 26.8605 80.8484 26.9428C80.6831 27.0251 80.5358 27.1392 80.4146 27.2785C80.2935 27.4178 80.2011 27.5797 80.1426 27.7547C80.0841 27.9298 80.0607 28.1147 80.0738 28.2989C80.0868 28.483 80.136 28.6627 80.2186 28.8278C80.3012 28.9929 80.4155 29.1401 80.555 29.261L81.8465 30.3828ZM88.0151 25.9243C88.0703 26.2912 88.2666 26.622 88.5622 26.8463C88.8578 27.0706 89.2292 27.1706 89.5975 27.125C89.7802 27.1 89.9562 27.0393 90.1155 26.9462C90.2748 26.8532 90.4142 26.7297 90.5257 26.5828C90.6372 26.4358 90.7187 26.2684 90.7655 26.09C90.8123 25.9116 90.8236 25.7257 90.7985 25.5429L90.5447 23.691C90.4921 23.3236 90.2963 22.992 90 22.7685C89.7037 22.545 89.3311 22.4479 88.9634 22.4982C88.5957 22.5486 88.2629 22.7424 88.0377 23.0374C87.8124 23.3323 87.713 23.7044 87.7612 24.0724L88.0151 25.9243ZM16.8571 43.9112V47.7568C16.8571 48.1293 17.0051 48.4867 17.2686 48.7501C17.532 49.0135 17.8893 49.1615 18.2619 49.1615C18.6345 49.1615 18.9918 49.0135 19.2552 48.7501C19.5187 48.4867 19.6667 48.1293 19.6667 47.7568V43.9105C21.3184 43.1079 22.4762 40.9216 22.4762 38.2774C22.4762 34.9298 20.6249 32.3075 18.2612 32.3075C15.8982 32.3075 14.0476 34.9298 14.0476 38.2774C14.0476 40.9223 15.2054 43.1086 16.8571 43.9112ZM18.2612 35.116C18.7564 35.116 19.6667 36.3163 19.6667 38.2774C19.6667 40.2363 18.7564 41.4374 18.2612 41.4374C17.7659 41.4374 16.8571 40.2363 16.8571 38.2774C16.8571 36.3163 17.7659 35.116 18.2612 35.116ZM31.6071 35.485V39.3299C31.6071 39.7025 31.7551 40.0598 32.0186 40.3232C32.282 40.5867 32.6393 40.7347 33.0119 40.7347C33.3845 40.7347 33.7418 40.5867 34.0052 40.3232C34.2687 40.0598 34.4167 39.7025 34.4167 39.3299V35.4843C36.0684 34.6811 37.2262 32.4947 37.2262 29.8501C37.2262 26.5032 35.3749 23.8813 33.0112 23.8813C30.6482 23.8813 28.7976 26.5032 28.7976 29.8501C28.7976 32.4954 29.9554 34.6815 31.6071 35.485ZM33.0112 26.6901C33.5064 26.6901 34.4167 27.8891 34.4167 29.8501C34.4167 31.8099 33.5064 33.0099 33.0112 33.0099C32.5159 33.0099 31.6071 31.8099 31.6071 29.8501C31.6071 27.8891 32.5159 26.6901 33.0112 26.6901ZM51.9769 54.0994L52.0475 57.1196C52.0334 58.4238 52.3531 59.7099 52.9763 60.8556C53.5995 62.0013 54.5055 62.9686 55.6081 63.6653C56.6106 64.2644 57.755 64.5846 58.9228 64.5926C60.0906 64.6006 61.2393 64.2962 62.2499 63.7109C63.4215 62.9972 64.3861 61.9896 65.048 60.788C65.7099 59.5864 66.0461 58.2326 66.0231 56.861L65.9538 53.8381C65.9673 52.5455 65.6531 51.2705 65.0406 50.1321C64.428 48.9937 63.5371 48.029 62.4508 47.328C61.4077 46.6897 60.2065 46.3564 58.9836 46.3661C57.7606 46.3758 56.5649 46.7281 55.532 47.3829C54.4218 48.1126 53.5139 49.1108 52.8924 50.2849C52.271 51.459 51.956 52.7711 51.9769 54.0994ZM58.9774 49.1605L59.0528 49.1598C61.3019 49.1598 63.1367 51.2632 63.145 53.8744L63.2143 56.8973C63.2225 59.5518 61.3424 61.7519 59.0253 61.7999L58.9533 61.8006C56.7021 61.8006 54.8646 59.6969 54.8564 57.0825L54.7857 54.0617C54.7775 51.4066 56.6582 49.2095 58.9774 49.1605Z" fill="#6296B7"/>
<path d="M62.5525 17.89C62.9693 17.89 63.3767 17.7664 63.7232 17.5348C64.0697 17.3033 64.3398 16.9742 64.4993 16.5892C64.6588 16.2042 64.7005 15.7805 64.6192 15.3717C64.5379 14.963 64.3372 14.5875 64.0425 14.2928C63.7478 13.9982 63.3724 13.7975 62.9636 13.7162C62.5549 13.6349 62.1312 13.6766 61.7462 13.8361C61.3611 13.9956 61.032 14.2656 60.8005 14.6122C60.569 14.9587 60.4454 15.3661 60.4454 15.7828C60.446 16.3415 60.6682 16.8771 61.0633 17.2721C61.4583 17.6671 61.9939 17.8893 62.5525 17.89ZM62.5525 14.7292C62.7609 14.7292 62.9646 14.791 63.1379 14.9068C63.3111 15.0226 63.4462 15.1871 63.5259 15.3796C63.6056 15.5721 63.6265 15.784 63.5859 15.9884C63.5452 16.1927 63.4449 16.3805 63.2975 16.5278C63.1502 16.6751 62.9624 16.7755 62.7581 16.8161C62.5537 16.8568 62.3419 16.8359 62.1493 16.7562C61.9568 16.6764 61.7923 16.5414 61.6765 16.3682C61.5608 16.1949 61.499 15.9912 61.499 15.7828C61.4992 15.5035 61.6103 15.2357 61.8078 15.0381C62.0054 14.8406 62.2732 14.7295 62.5525 14.7292ZM87.8382 7.68868C87.5604 7.68868 87.2888 7.77107 87.0578 7.92542C86.8268 8.07978 86.6467 8.29917 86.5404 8.55586C86.4341 8.81255 86.4063 9.095 86.4605 9.3675C86.5147 9.63999 86.6485 9.8903 86.8449 10.0868C87.0414 10.2832 87.2917 10.417 87.5642 10.4712C87.8367 10.5254 88.1191 10.4976 88.3758 10.3913C88.6325 10.2849 88.8519 10.1049 89.0063 9.87388C89.1606 9.64287 89.243 9.37128 89.243 9.09344C89.2426 8.721 89.0944 8.36395 88.8311 8.10059C88.5677 7.83724 88.2107 7.6891 87.8382 7.68868ZM87.8382 9.79582C87.6993 9.79582 87.5635 9.75463 87.448 9.67745C87.3325 9.60027 87.2425 9.49057 87.1893 9.36223C87.1362 9.23389 87.1223 9.09266 87.1494 8.95641C87.1765 8.82016 87.2434 8.69501 87.3416 8.59678C87.4398 8.49855 87.565 8.43166 87.7012 8.40455C87.8375 8.37745 87.9787 8.39136 88.107 8.44452C88.2354 8.49769 88.3451 8.58771 88.4223 8.70322C88.4994 8.81872 88.5406 8.95452 88.5406 9.09344C88.5404 9.27967 88.4664 9.45821 88.3347 9.58989C88.203 9.72157 88.0245 9.79563 87.8382 9.79582ZM43.234 4.21429C42.9562 4.21429 42.6846 4.29668 42.4535 4.45104C42.2225 4.6054 42.0425 4.82479 41.9362 5.08148C41.8298 5.33816 41.802 5.62061 41.8562 5.89311C41.9104 6.16561 42.0442 6.41591 42.2407 6.61237C42.4371 6.80883 42.6874 6.94262 42.9599 6.99683C43.2324 7.05103 43.5149 7.02321 43.7716 6.91689C44.0283 6.81056 44.2477 6.63051 44.402 6.3995C44.5564 6.16849 44.6388 5.89689 44.6388 5.61906C44.6383 5.24662 44.4902 4.88956 44.2268 4.62621C43.9635 4.36286 43.6064 4.21472 43.234 4.21429ZM43.234 6.32144C43.0951 6.32144 42.9593 6.28024 42.8438 6.20306C42.7283 6.12589 42.6382 6.01619 42.5851 5.88785C42.5319 5.7595 42.518 5.61828 42.5451 5.48203C42.5722 5.34578 42.6391 5.22063 42.7373 5.1224C42.8356 5.02417 42.9607 4.95727 43.097 4.93017C43.2332 4.90307 43.3744 4.91698 43.5028 4.97014C43.6311 5.0233 43.7408 5.11333 43.818 5.22883C43.8952 5.34434 43.9364 5.48014 43.9364 5.61906C43.9362 5.80528 43.8621 5.98383 43.7304 6.11551C43.5988 6.24719 43.4202 6.32125 43.234 6.32144ZM103.591 18.9268C103.313 18.9268 103.041 19.0092 102.81 19.1635C102.579 19.3179 102.399 19.5373 102.293 19.794C102.186 20.0506 102.159 20.3331 102.213 20.6056C102.267 20.8781 102.401 21.1284 102.597 21.3249C102.794 21.5213 103.044 21.6551 103.317 21.7093C103.589 21.7635 103.871 21.7357 104.128 21.6294C104.385 21.523 104.604 21.343 104.759 21.112C104.913 20.881 104.995 20.6094 104.995 20.3315C104.995 19.9591 104.847 19.602 104.583 19.3387C104.32 19.0753 103.963 18.9272 103.591 18.9268ZM103.591 21.0339C103.452 21.0339 103.316 20.9927 103.2 20.9155C103.085 20.8384 102.995 20.7287 102.942 20.6003C102.888 20.472 102.875 20.3308 102.902 20.1945C102.929 20.0583 102.996 19.9331 103.094 19.8349C103.192 19.7366 103.317 19.6698 103.454 19.6427C103.59 19.6155 103.731 19.6295 103.859 19.6826C103.988 19.7358 104.097 19.8258 104.175 19.9413C104.252 20.0568 104.293 20.1926 104.293 20.3315C104.293 20.5178 104.219 20.6963 104.087 20.828C103.955 20.9597 103.777 21.0337 103.591 21.0339ZM5.26826 38.4133C5.26826 38.1355 5.18588 37.8639 5.03152 37.6329C4.87716 37.4019 4.65777 37.2218 4.40108 37.1155C4.1444 37.0092 3.86194 36.9813 3.58945 37.0355C3.31695 37.0897 3.06665 37.2235 2.87019 37.42C2.67373 37.6165 2.53994 37.8668 2.48573 38.1393C2.43153 38.4117 2.45935 38.6942 2.56567 38.9509C2.672 39.2076 2.85205 39.427 3.08306 39.5813C3.31407 39.7357 3.58567 39.8181 3.8635 39.8181C4.23594 39.8176 4.593 39.6695 4.85635 39.4062C5.1197 39.1428 5.26784 38.7857 5.26826 38.4133ZM3.16112 38.4133C3.16112 38.2744 3.20232 38.1386 3.27949 38.0231C3.35667 37.9076 3.46637 37.8176 3.59471 37.7644C3.72306 37.7112 3.86428 37.6973 4.00053 37.7244C4.13678 37.7515 4.26193 37.8184 4.36016 37.9166C4.45839 38.0149 4.52529 38.14 4.55239 38.2763C4.57949 38.4125 4.56558 38.5538 4.51242 38.6821C4.45926 38.8104 4.36923 38.9201 4.25372 38.9973C4.13822 39.0745 4.00242 39.1157 3.8635 39.1157C3.67728 39.1155 3.49873 39.0414 3.36705 38.9098C3.23537 38.7781 3.16131 38.5995 3.16112 38.4133Z" fill="#2D4356"/>
<path d="M23.7158 17.53L24.7603 16.1561L24.1008 15.7825L23.4307 17.3207H23.4082L22.7269 15.7937L22.0561 16.1786L23.0893 17.5195V17.5412L21.4731 17.3319V18.0793L23.1006 17.8707V17.8924L22.0561 19.2333L22.6826 19.6294L23.397 18.0793H23.4187L24.0783 19.6182L24.7708 19.2227L23.7158 17.9037V17.8819L25.3749 18.0793V17.3319L23.7158 17.5518V17.53Z" fill="#6296B7"/>
<path d="M6.20483 14.0567L5.60359 14.8286L5.96461 15.0569L6.37621 14.1642H6.38815L6.76814 15.0506L7.16709 14.8223L6.55953 14.0631V14.0504L7.51477 14.1642V13.7343L6.55953 13.8608V13.8481L7.16077 13.0572L6.78148 12.8416L6.39517 13.7273H6.38253L5.9899 12.8479L5.60359 13.0692L6.19921 13.8418V13.8544L5.26855 13.7343V14.1642L6.20483 14.0441V14.0567Z" fill="#6296B7"/>
<path d="M114.645 36.8933V36.16L113.018 36.3756V36.3546L114.042 35.0067L113.395 34.6407L112.738 36.1495H112.716L112.048 34.6513L111.39 35.0285L112.403 36.344V36.3651L110.818 36.16V36.8933L112.414 36.6889V36.71L111.39 38.0248L112.004 38.4132L112.705 36.8933H112.726L113.373 38.4027L114.053 38.0143L113.018 36.7205V36.6994L114.645 36.8933Z" fill="#6296B7"/>
<path d="M111.328 7.39749L112.212 6.23575L111.654 5.91968L111.086 7.22119H111.067L110.491 5.92881L109.923 6.25401L110.798 7.38836V7.40732L109.431 7.23032V7.86246L110.807 7.68617V7.70443L109.923 8.83877L110.454 9.17381L111.058 7.86246H111.077L111.635 9.16468L112.221 8.82964L111.328 7.71356V7.6953L112.731 7.86246V7.23032L111.328 7.41645V7.39749Z" fill="#6296B7"/>
<path d="M1.40476 103.952C2.18059 103.952 2.80952 103.323 2.80952 102.548C2.80952 101.772 2.18059 101.143 1.40476 101.143C0.628933 101.143 0 101.772 0 102.548C0 103.323 0.628933 103.952 1.40476 103.952Z" fill="#2D4356"/>
<path d="M7.72614 101.143H5.619C5.24643 101.143 4.88912 101.291 4.62568 101.554C4.36223 101.818 4.21423 102.175 4.21423 102.548C4.21423 102.92 4.36223 103.278 4.62568 103.541C4.88912 103.804 5.24643 103.952 5.619 103.952H7.72614C8.0987 103.952 8.45601 103.804 8.71945 103.541C8.9829 103.278 9.1309 102.92 9.1309 102.548C9.1309 102.175 8.9829 101.818 8.71945 101.554C8.45601 101.291 8.0987 101.143 7.72614 101.143ZM112.381 101.143H110.274C109.901 101.143 109.544 101.291 109.28 101.554C109.017 101.818 108.869 102.175 108.869 102.548C108.869 102.92 109.017 103.278 109.28 103.541C109.544 103.804 109.901 103.952 110.274 103.952H112.381C112.753 103.952 113.111 103.804 113.374 103.541C113.638 103.278 113.786 102.92 113.786 102.548C113.786 102.175 113.638 101.818 113.374 101.554C113.111 101.291 112.753 101.143 112.381 101.143Z" fill="#2D4356"/>
<path d="M116.595 103.952C117.371 103.952 118 103.323 118 102.548C118 101.772 117.371 101.143 116.595 101.143C115.819 101.143 115.19 101.772 115.19 102.548C115.19 103.323 115.819 103.952 116.595 103.952Z" fill="#2D4356"/>
<path d="M82.989 106.762H77.1538C76.8007 106.79 76.4711 106.95 76.2308 107.211C75.9905 107.471 75.8571 107.812 75.8571 108.167C75.8571 108.521 75.9905 108.862 76.2308 109.123C76.4711 109.383 76.8007 109.543 77.1538 109.571H82.989C83.3421 109.543 83.6717 109.383 83.912 109.123C84.1523 108.862 84.2857 108.521 84.2857 108.167C84.2857 107.812 84.1523 107.471 83.912 107.211C83.6717 106.95 83.3421 106.79 82.989 106.762ZM40.8461 106.762H35.0109C34.6578 106.79 34.3283 106.95 34.088 107.211C33.8477 107.471 33.7142 107.812 33.7142 108.167C33.7142 108.521 33.8477 108.862 34.088 109.123C34.3283 109.383 34.6578 109.543 35.0109 109.571H40.8461C41.1993 109.543 41.5288 109.383 41.7691 109.123C42.0094 108.862 42.1428 108.521 42.1428 108.167C42.1428 107.812 42.0094 107.471 41.7691 107.211C41.5288 106.95 41.1993 106.79 40.8461 106.762ZM73.0476 106.762H44.9523C44.5798 106.762 44.2225 106.91 43.959 107.173C43.6956 107.437 43.5476 107.794 43.5476 108.167C43.5476 108.539 43.6956 108.897 43.959 109.16C44.2225 109.423 44.5798 109.571 44.9523 109.571H56.1483V110.976H50.5714C50.1988 110.976 49.8415 111.124 49.5781 111.388C49.3146 111.651 49.1666 112.008 49.1666 112.381C49.1666 112.754 49.3146 113.111 49.5781 113.374C49.8415 113.638 50.1988 113.786 50.5714 113.786H68.1309C68.5035 113.786 68.8608 113.638 69.1242 113.374C69.3877 113.111 69.5357 112.754 69.5357 112.381C69.5357 112.008 69.3877 111.651 69.1242 111.388C68.8608 111.124 68.5035 110.976 68.1309 110.976H61.8516V109.571H73.0476C73.4202 109.571 73.7775 109.423 74.0409 109.16C74.3043 108.897 74.4523 108.539 74.4523 108.167C74.4523 107.794 74.3043 107.437 74.0409 107.173C73.7775 106.91 73.4202 106.762 73.0476 106.762Z" fill="#6296B7"/>
<path d="M105.864 101.143H76.9801C77.0034 101.082 77.0309 101.024 77.0514 100.962C77.7805 98.751 76.5884 96.504 74.1218 95.3886L71.9529 94.331L72.4406 94.1499C73.3758 93.8871 74.2457 93.4315 74.9944 92.8126C75.7431 92.1936 76.354 91.4248 76.788 90.5557C76.8885 90.33 76.973 90.0976 77.041 89.8601C77.6664 89.9371 78.301 89.8724 78.898 89.671C79.495 89.4695 80.039 89.1363 80.4899 88.6962L81.0311 88.1625C81.3954 87.8056 81.6847 87.3795 81.8819 86.9092C82.0791 86.4388 82.1802 85.9338 82.1792 85.4238C82.1783 84.9138 82.0753 84.4092 81.8763 83.9396C81.6774 83.47 81.3865 83.045 81.0208 82.6895L76.1487 76.5444L74.1938 69.6599C73.6663 67.4704 71.127 65.2192 69.4809 64.3132L67.0054 62.9516C66.4713 63.7546 65.8279 64.4793 65.0937 65.1047L68.1268 66.7736C69.4336 67.4945 71.2142 69.2381 71.4645 70.3287C71.47 70.3513 73.5223 77.5809 73.5223 77.5809C73.573 77.7587 73.658 77.9248 73.7726 78.07C73.7726 78.07 78.8554 84.4792 78.8793 84.5094C79.2799 85.0218 79.6106 85.6144 79.0536 86.1638L78.5131 86.6981C78.2709 86.9236 77.958 87.0582 77.6277 87.079C77.2974 87.0997 76.9701 87.0054 76.7015 86.812L69.1201 78.7188L67.9348 74.8077C67.8813 74.6311 67.7936 74.4669 67.6766 74.3242C67.5596 74.1816 67.4156 74.0634 67.253 73.9764C67.0903 73.8894 66.9121 73.8353 66.7285 73.8171C66.5449 73.799 66.3596 73.8172 66.183 73.8707C66.0065 73.9242 65.8422 74.012 65.6995 74.129C65.5569 74.2459 65.4387 74.3899 65.3517 74.5526C65.2647 74.7152 65.2106 74.8934 65.1924 75.077C65.1743 75.2606 65.1925 75.446 65.246 75.6225L66.5259 79.8465C66.5878 80.0535 66.697 80.2432 66.8448 80.4007L69.4041 83.132C68.9213 83.2569 68.4507 83.4247 67.9979 83.6334L59 88.0185L49.976 83.6203C49.5317 83.417 49.0704 83.2532 48.5974 83.1306L51.1558 80.4007C51.3038 80.2433 51.413 80.0535 51.4748 79.8465L52.7547 75.6226C52.8083 75.446 52.8265 75.2606 52.8083 75.0771C52.7902 74.8935 52.7361 74.7153 52.6491 74.5526C52.5621 74.3899 52.4439 74.246 52.3012 74.129C52.1586 74.012 51.9943 73.9242 51.8178 73.8707C51.6412 73.8172 51.4559 73.799 51.2723 73.8172C51.0887 73.8353 50.9105 73.8894 50.7478 73.9764C50.5851 74.0634 50.4412 74.1816 50.3242 74.3243C50.2072 74.4669 50.1195 74.6312 50.066 74.8077L48.8807 78.7188L41.2992 86.812C41.0307 87.0057 40.7034 87.1002 40.373 87.0794C40.0427 87.0587 39.7298 86.9239 39.4877 86.6981L38.9479 86.1652C38.8458 86.0683 38.765 85.9512 38.7105 85.8214C38.6561 85.6915 38.6293 85.5518 38.6317 85.4111C38.6342 85.2703 38.6659 85.1316 38.7248 85.0038C38.7837 84.8759 38.8686 84.7617 38.974 84.6684C39.0275 84.6205 44.2287 78.0699 44.2287 78.0699C44.3434 77.9249 44.4284 77.7587 44.4791 77.5809L46.5355 70.3287C46.7865 69.2381 48.5679 67.4945 49.8746 66.7735L52.8673 65.128C52.1368 64.4998 51.4987 63.7714 50.9721 62.9646L48.5206 64.3132C46.8648 65.2234 44.3049 67.4978 43.8152 69.6297L41.8528 76.5444L36.98 82.6895C36.6142 83.045 36.3233 83.47 36.1244 83.9396C35.9254 84.4093 35.8225 84.9139 35.8216 85.424C35.8207 85.934 35.9218 86.439 36.1191 86.9093C36.3164 87.3797 36.6059 87.8057 36.9704 88.1625L37.5109 88.6962C38.2984 89.4686 39.3585 89.8999 40.4617 89.8965C40.6276 89.8918 40.7932 89.8779 40.9576 89.8547C41.0259 90.094 41.1109 90.3283 41.2121 90.5557C41.6395 91.4171 42.242 92.1799 42.981 92.7953C43.72 93.4106 44.5793 93.865 45.504 94.1293L46.0472 94.331L43.9146 95.3694C41.4117 96.504 40.2196 98.751 40.9487 100.964C40.9691 101.026 40.9963 101.083 41.0192 101.143H12.1363C11.9364 101.117 11.7333 101.134 11.5405 101.192C11.3477 101.251 11.1696 101.35 11.0181 101.483C10.8666 101.616 10.7453 101.78 10.6621 101.963C10.579 102.147 10.536 102.346 10.536 102.548C10.536 102.749 10.579 102.948 10.6621 103.132C10.7453 103.316 10.8666 103.479 11.0181 103.612C11.1696 103.745 11.3477 103.844 11.5405 103.903C11.7333 103.962 11.9364 103.978 12.1363 103.952H105.864C106.064 103.978 106.267 103.962 106.46 103.903C106.652 103.844 106.831 103.745 106.982 103.612C107.133 103.479 107.255 103.316 107.338 103.132C107.421 102.948 107.464 102.749 107.464 102.548C107.464 102.346 107.421 102.147 107.338 101.963C107.255 101.78 107.133 101.616 106.982 101.483C106.831 101.35 106.652 101.251 106.46 101.192C106.267 101.134 106.064 101.117 105.864 101.143ZM72.9276 97.93C73.8385 98.3443 74.6993 99.1235 74.3831 100.084C74.1957 100.5 73.8579 100.829 73.4376 101.005C73.0174 101.181 72.5459 101.192 72.1182 101.034L63.0263 97.6501L68.3168 95.6829L72.9276 97.93ZM43.7699 89.3924C43.6434 89.1131 43.5721 88.8119 43.56 88.5055L46.1863 85.7042C46.3496 85.685 46.5138 85.6756 46.6782 85.6761C47.4025 85.6841 48.1167 85.8486 48.7716 86.1582L55.7947 89.581L49.533 92.6327L46.4278 91.4789C45.8662 91.3301 45.3408 91.0683 44.8838 90.7096C44.4268 90.3508 44.0478 89.9026 43.7699 89.3924ZM45.1088 97.9115L69.2024 86.1706C69.8647 85.8541 70.5879 85.6853 71.3219 85.6761C71.4865 85.6754 71.651 85.6852 71.8143 85.7056L74.44 88.5055C74.4279 88.8119 74.3566 89.1131 74.2301 89.3924C73.9455 89.91 73.5579 90.3638 73.0912 90.7259C72.6245 91.0881 72.0887 91.3509 71.5166 91.4981L45.9373 101.013C45.505 101.182 45.0246 101.18 44.5936 101.007C44.1625 100.835 43.8133 100.505 43.6169 100.084C43.3007 99.1235 44.1615 98.3443 45.1088 97.9115ZM59 99.1516C59 99.1516 61.5739 100.108 64.3562 101.143H53.6445L59 99.1516Z" fill="#2D4356"/>
</svg>
