<svg width="118" height="118" viewBox="0 0 118 118" fill="none" xmlns="http://www.w3.org/2000/svg">
<path d="M93.9785 41.5107C93.2761 41.8619 92.9952 42.7047 93.3464 43.4071C93.6273 43.8988 94.119 44.1797 94.6107 44.1797C94.8214 44.1797 95.0321 44.1095 95.2428 44.0393C95.9452 43.6881 96.2261 42.8452 95.875 42.1428C95.4535 41.4405 94.6107 41.1595 93.9785 41.5107Z" fill="#2D4356"/>
<path d="M92.9251 37.2964C92.5036 36.6643 91.5905 36.5238 90.9584 36.9452C90.3262 37.3667 90.1858 38.2798 90.6072 38.9119C90.8881 39.3333 91.3096 39.544 91.731 39.544C92.012 39.544 92.2929 39.4738 92.5036 39.2631C93.206 38.8417 93.3465 37.9988 92.9251 37.2964ZM75.2251 25.9178C75.787 25.9178 76.2786 25.6369 76.4893 25.075C76.7703 24.3726 76.4893 23.5297 75.787 23.2488C75.0846 22.8976 74.2417 23.2488 73.9608 23.9512C73.6096 24.6536 73.9608 25.4964 74.6632 25.7774C74.8036 25.8476 75.0143 25.9178 75.2251 25.9178Z" fill="#6296B7"/>
<path d="M81.1952 27.744C81.6167 27.1119 81.406 26.1988 80.7738 25.7774C80.1417 25.3559 79.2286 25.5666 78.8071 26.1988C78.3857 26.8309 78.5964 27.744 79.2286 28.1655C79.4393 28.3059 79.7202 28.3762 80.0012 28.3762C80.4929 28.4464 80.9845 28.2357 81.1952 27.744Z" fill="#2D4356"/>
<path d="M84.4262 31.6072C84.8476 31.6072 85.1988 31.3964 85.55 31.1155C86.0416 30.4834 85.9714 29.6405 85.3393 29.1488C84.7071 28.6572 83.8642 28.7274 83.3726 29.3595C82.8809 29.9917 82.9512 30.8345 83.5833 31.3262C83.794 31.4667 84.1452 31.6072 84.4262 31.6072Z" fill="#6296B7"/>
<path d="M89.3429 34.9786C89.9048 34.4167 89.975 33.5738 89.4131 33.0119C88.8512 32.45 88.0084 32.3798 87.4465 32.9417C86.8846 33.5036 86.8143 34.3464 87.3762 34.9083C87.6572 35.1893 88.0084 35.3298 88.4298 35.3298C88.7108 35.3298 89.0619 35.1893 89.3429 34.9786Z" fill="#2D4356"/>
<path d="M92.644 48.8857L96.3666 50.8524C96.5773 50.9928 96.7881 50.9928 96.9988 50.9928C97.4904 50.9928 97.9821 50.7119 98.2631 50.2202L100.23 46.4976C100.581 45.7952 100.3 44.9524 99.6678 44.6012C98.9654 44.25 98.1226 44.5309 97.7714 45.1631L97.1393 46.3571C96.8583 46.2869 96.5774 46.2869 96.2964 46.3571C95.9452 46.4976 95.6642 46.7785 95.4535 47.1297L93.9785 46.3571C93.2762 46.0059 92.4333 46.2869 92.0821 46.919C91.7309 47.6916 91.9416 48.5345 92.644 48.8857Z" fill="#6296B7"/>
<path d="M39.4036 26.1286C39.6846 26.6202 40.1762 26.9012 40.6679 26.9012C40.8786 26.9012 41.0893 26.8309 41.3 26.7607C42.0024 26.4095 42.2834 25.5666 41.9322 24.8643C41.581 24.1619 40.7381 23.8809 40.0358 24.2321C39.3334 24.5833 39.0524 25.4964 39.4036 26.1286ZM24.1619 41.3C24.3727 41.4405 24.6536 41.5107 24.8643 41.5107C25.356 41.5107 25.7774 41.3 26.0584 40.8786C26.4798 40.2464 26.2691 39.3333 25.6369 38.9119C25.0048 38.4905 24.0917 38.7012 23.6703 39.4036C23.3191 40.0357 23.5298 40.8786 24.1619 41.3Z" fill="#2D4356"/>
<path d="M29.1488 36.5941C29.6405 35.9619 29.5703 35.1191 28.9381 34.6274C28.306 34.1357 27.4631 34.206 26.9714 34.8381C26.4798 35.4 26.55 36.3131 27.1822 36.8048C27.4631 37.0155 27.7441 37.156 28.0953 37.156C28.5167 37.0857 28.8679 36.875 29.1488 36.5941ZM22.9679 43.6179C22.2655 43.3369 21.4226 43.6179 21.1417 44.3203C20.7905 45.0226 21.1417 45.8655 21.8441 46.1465C22.0548 46.2167 22.1953 46.2869 22.406 46.2869C22.9679 46.2869 23.4595 46.006 23.6703 45.4441C24.0214 44.7417 23.6703 43.8988 22.9679 43.6179ZM35.1893 27.1822C34.5572 27.6036 34.4167 28.5167 34.8381 29.1488C35.1191 29.5703 35.5405 29.781 35.9619 29.781C36.2429 29.781 36.5238 29.7107 36.7345 29.5C37.3667 29.0786 37.5072 28.1655 37.0857 27.5334C36.7345 26.9012 35.8214 26.6905 35.1893 27.1822Z" fill="#6296B7"/>
<path d="M30.8345 30.694C30.2726 31.2559 30.2024 32.0988 30.7643 32.6607C31.0452 32.9416 31.3964 33.0821 31.8179 33.0821C32.1691 33.0821 32.5202 32.9416 32.8012 32.7309C33.3631 32.169 33.4333 31.3262 32.8714 30.7643C32.3095 30.2024 31.3964 30.2024 30.8345 30.694Z" fill="#2D4356"/>
<path d="M95.0321 78.5964C95.2428 78.6666 95.3833 78.7369 95.594 78.7369C96.1559 78.7369 96.6476 78.4559 96.8583 77.894C97.1392 77.1916 96.8583 76.3488 96.1559 76.0678C95.4535 75.7166 94.6107 76.0678 94.3297 76.7702C93.9785 77.4726 94.3297 78.3154 95.0321 78.5964ZM90.9583 87.4464C91.45 86.8143 91.3797 85.9714 90.7476 85.4797C90.1154 84.9881 89.2726 85.0583 88.7809 85.6904C88.2892 86.3226 88.3595 87.1654 88.9916 87.6571C89.2726 87.8678 89.5535 88.0083 89.9047 88.0083C90.3261 87.9381 90.7476 87.7976 90.9583 87.4464Z" fill="#6296B7"/>
<path d="M76.0678 97.35C76.3488 97.8417 76.8404 98.1226 77.3321 98.1226C77.5428 98.1226 77.7535 98.0524 77.9642 97.9821C78.6666 97.6309 78.9476 96.7881 78.5964 96.0857C78.2452 95.3833 77.4023 95.1024 76.7 95.4536C75.9976 95.8047 75.7166 96.6476 76.0678 97.35Z" fill="#2D4356"/>
<path d="M81.9679 95.3131C82.2489 95.3131 82.5298 95.2429 82.7405 95.0321C83.3727 94.6107 83.5131 93.6976 83.0917 93.0655C82.6703 92.4333 81.7572 92.2929 81.125 92.7143C80.4929 93.1357 80.3524 94.0488 80.7739 94.681C81.0548 95.1024 81.5465 95.3131 81.9679 95.3131Z" fill="#6296B7"/>
<path d="M93.8382 80.9143C93.206 80.4928 92.2929 80.7035 91.8715 81.3357C91.4501 81.9678 91.6608 82.8809 92.2929 83.3024C92.5036 83.4428 92.7846 83.5131 92.9953 83.5131C93.487 83.5131 93.9084 83.3024 94.1893 82.8809C94.681 82.1785 94.4703 81.3357 93.8382 80.9143ZM86.1822 91.8714C86.5334 91.8714 86.8846 91.7309 87.1655 91.5202C87.7274 90.9583 87.7977 90.1155 87.2358 89.5535C86.6739 88.9916 85.831 88.9214 85.2691 89.4833C84.7072 90.0452 84.637 90.8881 85.1989 91.45C85.4096 91.7309 85.831 91.8714 86.1822 91.8714Z" fill="#2D4356"/>
<path d="M26.2691 76.2084C26.6905 75.5762 26.4798 74.6631 25.8477 74.2417L22.2655 71.9941C21.9846 71.7834 21.5631 71.7131 21.212 71.7834C20.8608 71.8536 20.5096 72.0643 20.3691 72.4155L18.1215 75.9976C17.7 76.6298 17.9108 77.5429 18.5429 77.9643C18.7536 78.1048 19.0346 78.175 19.3155 78.175C19.8072 78.175 20.2286 77.9643 20.5096 77.5429L21.6334 75.7869C21.7036 75.7869 21.7036 75.7869 21.7739 75.7167C21.9846 75.6465 22.1953 75.506 22.3358 75.2953L24.3727 76.5596C25.0048 77.0512 25.8477 76.9107 26.2691 76.2084Z" fill="#6296B7"/>
<path d="M22.7571 78.175C22.0547 78.5262 21.7738 79.369 22.1249 80.0714C22.4059 80.5631 22.8273 80.844 23.3892 80.844C23.5999 80.844 23.8107 80.7738 24.0214 80.7036C24.7238 80.3524 25.0047 79.5095 24.6535 78.8071C24.3023 78.1048 23.4595 77.8238 22.7571 78.175ZM38.7011 93.9786C38.069 93.5571 37.1559 93.7678 36.7345 94.4C36.313 95.0321 36.5238 95.9452 37.2261 96.3667C37.4369 96.5071 37.7178 96.5774 37.9285 96.5774C38.4202 96.5774 38.8416 96.3667 39.1226 95.9452C39.6142 95.2429 39.4035 94.4 38.7011 93.9786Z" fill="#2D4356"/>
<path d="M32.5203 91.0988C32.0286 91.731 32.0989 92.5738 32.731 93.0655C33.012 93.2762 33.2929 93.3464 33.6441 93.3464C34.0655 93.3464 34.4167 93.1357 34.6977 92.8548C35.1893 92.2226 35.1191 91.3798 34.487 90.8881C33.8548 90.4667 32.9417 90.5369 32.5203 91.0988ZM42.2131 98.9655C42.4239 99.0357 42.5643 99.106 42.7751 99.106C43.337 99.106 43.8286 98.825 44.0393 98.2631C44.3203 97.5607 44.0393 96.7179 43.337 96.4369C42.6346 96.0857 41.7917 96.4369 41.5108 97.1393C41.1596 97.8417 41.5108 98.6845 42.2131 98.9655Z" fill="#6296B7"/>
<path d="M28.6572 87.2357C28.0953 87.7976 28.025 88.6405 28.5869 89.2024C28.8679 89.4833 29.2191 89.6238 29.6405 89.6238C29.9917 89.6238 30.3429 89.4833 30.6238 89.2726C31.1857 88.7107 31.1857 87.8679 30.6941 87.306C30.1322 86.7441 29.2191 86.744 28.6572 87.2357Z" fill="#2D4356"/>
<path d="M26.1989 85.4798C26.4798 85.4798 26.7608 85.4095 26.9715 85.1988C27.6036 84.7774 27.7441 83.8643 27.3227 83.2322C26.9012 82.6 25.9881 82.4595 25.356 82.881C24.7239 83.3024 24.5834 84.2155 25.0048 84.8476C25.356 85.2691 25.7774 85.4798 26.1989 85.4798Z" fill="#6296B7"/>
<path d="M62.5119 31.6072C64.8298 31.6072 66.7262 29.7107 66.7262 27.3929V20.3691C66.7262 18.0512 64.8298 16.1548 62.5119 16.1548H55.4881C53.1702 16.1548 51.2738 18.0512 51.2738 20.3691V27.3929C51.2738 29.7107 53.1702 31.6072 55.4881 31.6072H62.5119ZM54.0833 27.3929V20.3691C54.0833 19.5965 54.7155 18.9643 55.4881 18.9643H62.5119C63.2845 18.9643 63.9167 19.5965 63.9167 20.3691V27.3929C63.9167 28.1655 63.2845 28.7976 62.5119 28.7976H55.4881C54.7155 28.7976 54.0833 28.1655 54.0833 27.3929ZM96.2262 53.381C91.9417 53.381 88.5 56.8226 88.5 61.1072C88.5 65.3917 91.9417 68.8334 96.2262 68.8334C100.511 68.8334 103.952 65.3917 103.952 61.1072C103.952 56.8226 100.511 53.381 96.2262 53.381ZM96.2262 66.0238C93.4869 66.0238 91.3095 63.8465 91.3095 61.1072C91.3095 58.3679 93.4869 56.1905 96.2262 56.1905C98.9655 56.1905 101.143 58.3679 101.143 61.1072C101.143 63.8465 98.9655 66.0238 96.2262 66.0238ZM14.0476 61.1072C14.0476 65.3917 17.4893 68.8334 21.7738 68.8334C26.0583 68.8334 29.5 65.3917 29.5 61.1072C29.5 56.8226 26.0583 53.381 21.7738 53.381C17.4893 53.381 14.0476 56.8226 14.0476 61.1072ZM21.7738 56.1905C24.5131 56.1905 26.6905 58.3679 26.6905 61.1072C26.6905 63.8465 24.5131 66.0238 21.7738 66.0238C19.0345 66.0238 16.8571 63.8465 16.8571 61.1072C16.8571 58.3679 19.0345 56.1905 21.7738 56.1905Z" fill="#2D4356"/>
<path d="M73.4691 102.477C73.6798 102.548 73.8905 102.618 74.1012 102.618C74.5929 102.618 75.1548 102.337 75.3655 101.845C75.7167 101.143 75.4358 100.3 74.7334 99.9488L73.6798 99.4572C73.8203 99.106 73.8905 98.7548 73.75 98.4036C73.6096 97.9822 73.2584 97.631 72.8369 97.5607L73.4691 96.2262C73.8203 95.5238 73.5393 94.681 72.8369 94.3298C72.1346 93.9786 71.2917 94.2595 70.9405 94.9619L69.1143 98.7548C68.9739 99.106 68.9036 99.4572 69.0441 99.8084C69.1846 100.16 69.3953 100.44 69.7465 100.581L73.4691 102.477ZM47.2703 21.7738L43.5477 19.8072C42.8453 19.456 42.0024 19.7369 41.6512 20.3691C41.3 21.0714 41.581 21.9143 42.2131 22.2655L44.25 23.3191C44.25 23.4595 44.25 23.6703 44.3203 23.8107C44.3203 23.881 44.3905 23.9512 44.4608 24.0215L43.4072 26.0584C43.056 26.7607 43.3369 27.6036 43.9691 27.9548C44.1798 28.0953 44.3905 28.0953 44.6012 28.0953C45.0929 28.0953 45.5846 27.8143 45.8655 27.3226L47.8322 23.6C47.9727 23.2488 48.0429 22.8976 47.9024 22.5464C47.8322 22.2655 47.6215 21.9143 47.2703 21.7738ZM42.0024 65.1107L54.9965 78.1048C56.1203 79.2286 57.525 79.7203 59 79.7203C60.475 79.7203 61.8798 79.1584 63.0036 78.1048L75.9977 65.1107C78.175 62.9334 78.175 59.3512 75.9977 57.1738L63.0036 44.1095C60.8262 41.9322 57.2441 41.9322 55.0667 44.1095L42.0024 57.1036C39.825 59.3512 39.825 62.8631 42.0024 65.1107ZM44.0393 59.1405L57.0334 46.1464C57.5953 45.5845 58.2977 45.3036 59 45.3036C59.7024 45.3036 60.4048 45.5845 60.9667 46.1464L73.9608 59.1405C75.0846 60.2643 75.0846 62.0203 73.9608 63.1441L60.9667 76.1381C59.8429 77.2619 58.0869 77.2619 56.9631 76.1381L44.0393 63.0738C42.9155 62.0203 42.9155 60.1941 44.0393 59.1405Z" fill="#6296B7"/>
<path d="M52.1869 6.3214C53.3809 6.3214 54.294 5.40831 54.294 4.21426C54.294 3.02021 53.3809 2.10712 52.1869 2.10712C50.9928 2.10712 50.0797 3.02021 50.0797 4.21426C50.0797 5.40831 51.0631 6.3214 52.1869 6.3214ZM52.1869 3.16069C52.7488 3.16069 53.2404 3.65235 53.2404 4.21426C53.2404 4.77616 52.7488 5.26783 52.1869 5.26783C51.625 5.26783 51.1333 4.77616 51.1333 4.21426C51.1333 3.65235 51.625 3.16069 52.1869 3.16069ZM106.973 37.2964C106.2 37.2964 105.568 37.9285 105.568 38.7012C105.568 39.4738 106.2 40.1059 106.973 40.1059C107.745 40.1059 108.377 39.4738 108.377 38.7012C108.377 37.9285 107.745 37.2964 106.973 37.2964ZM106.973 39.4035C106.551 39.4035 106.27 39.1226 106.27 38.7012C106.27 38.2797 106.551 37.9988 106.973 37.9988C107.394 37.9988 107.675 38.2797 107.675 38.7012C107.675 39.1226 107.394 39.4035 106.973 39.4035ZM88.5 20.0178C87.7273 20.0178 87.0952 20.65 87.0952 21.4226C87.0952 22.1952 87.7273 22.8274 88.5 22.8274C89.2726 22.8274 89.9047 22.1952 89.9047 21.4226C89.9047 20.65 89.2726 20.0178 88.5 20.0178ZM88.5 22.125C88.0785 22.125 87.7976 21.844 87.7976 21.4226C87.7976 21.0012 88.0785 20.7202 88.5 20.7202C88.9214 20.7202 89.2023 21.0012 89.2023 21.4226C89.2023 21.844 88.9214 22.125 88.5 22.125ZM100.44 4.91664C99.6678 4.91664 99.0357 5.54878 99.0357 6.3214C99.0357 7.09402 99.6678 7.72616 100.44 7.72616C101.213 7.72616 101.845 7.09402 101.845 6.3214C101.845 5.54878 101.213 4.91664 100.44 4.91664ZM100.44 7.02378C100.019 7.02378 99.7381 6.74283 99.7381 6.3214C99.7381 5.89997 100.019 5.61902 100.44 5.61902C100.862 5.61902 101.143 5.89997 101.143 6.3214C101.143 6.74283 100.792 7.02378 100.44 7.02378ZM8.07735 11.1678C8.07735 10.3952 7.4452 9.76307 6.67258 9.76307C5.89997 9.76307 5.26782 10.3952 5.26782 11.1678C5.26782 11.9404 5.89997 12.5726 6.67258 12.5726C7.4452 12.5726 8.07735 11.9404 8.07735 11.1678ZM5.9702 11.1678C5.9702 10.7464 6.25116 10.4654 6.67258 10.4654C7.09401 10.4654 7.37497 10.7464 7.37497 11.1678C7.37497 11.5893 7.09401 11.8702 6.67258 11.8702C6.25116 11.8702 5.9702 11.5893 5.9702 11.1678Z" fill="#2D4356"/>
<path d="M5.54877 37.9286L6.60234 36.594L5.89996 36.1726L5.26781 37.7178H5.19758L4.56543 36.1726L3.86305 36.594L4.91662 37.9286L3.30115 37.7178V38.4905L4.91662 38.2798L3.86305 39.6143L4.4952 40.0357L5.19758 38.4905H5.26781L5.89996 40.0357L6.60234 39.6143L5.54877 38.2798L7.16424 38.4905V37.7178L5.54877 37.9286Z" fill="#6296B7"/>
<path d="M29.2893 16.9976L28.7274 17.7702L29.0786 17.981L29.5 17.0679L29.8512 17.981L30.2726 17.7702L29.6405 16.9976L30.6238 17.0679V16.6464L29.6405 16.7869L30.2726 15.9441L29.9215 15.7333L29.5 16.6464L29.0786 15.7333L28.7274 16.0143L29.2893 16.7869L28.3762 16.6464V17.0679L29.2893 16.9274V16.9976Z" fill="#6296B7"/>
<path d="M116.595 21.0714V20.369L114.98 20.5797L115.963 19.175L115.331 18.8238L114.699 20.369H114.629L113.996 18.8238L113.294 19.2452L114.348 20.5095V20.5797L112.732 20.369V21.0714L114.348 20.8607V20.9309L113.294 22.1952L113.926 22.6166L114.629 21.0714H114.699L115.331 22.6166L115.963 22.1952L114.98 20.9309L116.595 21.0714Z" fill="#6296B7"/>
<path d="M72.4155 11.0274L73.3286 9.90356L72.7667 9.55237L72.2048 10.8869H72.1345L71.5726 9.55237L71.0107 9.90356L71.8536 11.0274L70.519 10.8869V11.519L71.9238 11.3083V11.3786L71.0107 12.5024L71.5726 12.8536L72.1345 11.519L72.6964 12.7833L73.3286 12.5024L72.4155 11.3786L73.8202 11.519V10.8869L72.4155 11.0976V11.0274Z" fill="#6296B7"/>
<path d="M1.40476 106.06C2.18059 106.06 2.80952 105.431 2.80952 104.655C2.80952 103.879 2.18059 103.25 1.40476 103.25C0.628933 103.25 0 103.879 0 104.655C0 105.431 0.628933 106.06 1.40476 106.06Z" fill="#2D4356"/>
<path d="M7.72614 103.25H5.619C4.84638 103.25 4.21423 103.882 4.21423 104.655C4.21423 105.427 4.84638 106.06 5.619 106.06H7.72614C8.49876 106.06 9.1309 105.427 9.1309 104.655C9.1309 103.882 8.49876 103.25 7.72614 103.25ZM112.381 103.25H110.274C109.501 103.25 108.869 103.882 108.869 104.655C108.869 105.427 109.501 106.06 110.274 106.06H112.381C113.154 106.06 113.786 105.427 113.786 104.655C113.786 103.882 113.154 103.25 112.381 103.25Z" fill="#2D4356"/>
<path d="M116.595 106.06C117.371 106.06 118 105.431 118 104.655C118 103.879 117.371 103.25 116.595 103.25C115.819 103.25 115.19 103.879 115.19 104.655C115.19 105.431 115.819 106.06 116.595 106.06Z" fill="#2D4356"/>
<path d="M83.0215 108.869H77.1917C76.4893 108.869 75.9274 109.501 75.9274 110.274C75.9274 111.046 76.4893 111.679 77.1917 111.679H83.0215C83.7238 111.679 84.2857 111.046 84.2857 110.274C84.2857 109.501 83.7238 108.869 83.0215 108.869ZM40.8786 108.869H35.0488C34.3465 108.869 33.7845 109.501 33.7845 110.274C33.7845 111.046 34.3465 111.679 35.0488 111.679H40.8786C41.581 111.679 42.1429 111.046 42.1429 110.274C42.1429 109.501 41.581 108.869 40.8786 108.869ZM73.0476 108.869H44.9524C44.1798 108.869 43.5476 109.501 43.5476 110.274C43.5476 111.046 44.1798 111.679 44.9524 111.679H56.1203V113.083H50.5715C49.7988 113.083 49.1667 113.715 49.1667 114.488C49.1667 115.261 49.7988 115.893 50.5715 115.893H68.131C68.9036 115.893 69.5357 115.261 69.5357 114.488C69.5357 113.715 68.9036 113.083 68.131 113.083H61.8798V111.679H73.0476C73.8203 111.679 74.4524 111.046 74.4524 110.274C74.4524 109.501 73.8203 108.869 73.0476 108.869Z" fill="#6296B7"/>
<path d="M105.849 103.25H66.4453C66.5858 102.829 66.7262 102.337 66.7262 101.845V94.8214C66.7262 92.5035 64.8298 90.6071 62.512 90.6071H55.4881C53.1703 90.6071 51.2739 92.5035 51.2739 94.8214V101.845C51.2739 102.337 51.3441 102.829 51.5548 103.25H12.1512C11.2381 103.25 10.5358 103.882 10.5358 104.655C10.5358 105.427 11.2381 106.059 12.1512 106.059H105.849C106.762 106.059 107.464 105.427 107.464 104.655C107.464 103.882 106.762 103.25 105.849 103.25ZM55.4881 103.25C54.7155 103.25 54.0834 102.618 54.0834 101.845V94.8214C54.0834 94.0488 54.7155 93.4166 55.4881 93.4166H62.512C63.2846 93.4166 63.9167 94.0488 63.9167 94.8214V101.845C63.9167 102.618 63.2846 103.25 62.512 103.25H55.4881Z" fill="#2D4356"/>
</svg>
