<svg width="101" height="60" viewBox="0 0 101 60" fill="none" xmlns="http://www.w3.org/2000/svg">
<path d="M2.77549 0.182831C6.98392 18.4404 20.5857 26.7424 36.5444 32.5645C52.953 38.5504 69.2456 37.9808 86.176 31.3204C76.8306 27.6533 66.6994 26.9341 58.3867 18.8557C60.9044 18.8409 62.1936 18.4694 63.1232 18.8904C72.748 23.299 82.92 25.5177 93.3579 26.8049C94.6797 26.9629 96.0245 27.1734 97.2691 27.626C100.644 28.8609 101.627 31.1879 100.264 34.4721C99.9226 35.2897 99.4443 36.0459 98.918 36.7679C94.0377 43.5858 89.2374 50.4606 87.5278 59.0547C82.9921 52.0873 85.4807 45.6995 89.2431 39.3511C81.4931 40.6534 74.392 42.4662 67.1933 42.9437C46.0559 44.3416 27.0022 38.7016 11.5517 23.7551C7.53367 19.8686 4.73261 14.5105 2.0826 9.46488C0.17862 5.84263 0.790878 4.54303 2.77319 0.169167L2.77549 0.182831Z" fill="#D0E2EE"/>
</svg>
