<svg width="119" height="39" viewBox="0 0 119 39" fill="none" xmlns="http://www.w3.org/2000/svg">
<path d="M111.83 12.7083C110.97 16.4998 110.1 20.2815 109.15 24.4561C111.8 24.1811 113.26 22.6389 113.87 20.8316C115.67 15.4783 117.41 10.0758 118.59 4.57521C119.27 1.42217 117.03 -0.237841 113.91 0.714948C108.71 2.3062 103.6 4.15285 98.45 5.90126C98.15 5.99949 97.74 6.08788 97.6 6.30398C97.14 7.02102 96.79 7.79702 96.39 8.54354C97.05 8.85786 97.76 9.51596 98.37 9.43738C100.42 9.17217 102.45 8.65158 104.48 8.22921C105.55 8.00329 106.61 7.77737 108.18 8.18009C107.07 9.38827 106 10.6456 104.83 11.785C81.01 35.1136 45.32 40.1231 15.69 24.2105C11.9 22.1773 8.37 19.6823 4.71 17.4231C3.43 16.6373 2.11 15.9203 0.81 15.1639C0.54 15.3997 0.27 15.6256 0 15.8613C0.34 16.7552 0.42 17.9044 1.05 18.4938C3.23 20.5664 5.47 22.6291 7.92 24.3775C32.76 42.0581 67.25 42.7457 93.94 25.8902C99.03 22.6782 103.52 18.5429 108.26 14.8005C109.24 14.0343 110.1 13.1208 111.01 12.2761C111.28 12.4136 111.55 12.5413 111.82 12.6788L111.83 12.7083Z" fill="#EEE1D8"/>
</svg>
