<svg width="52" height="62" viewBox="0 0 52 62" fill="none" xmlns="http://www.w3.org/2000/svg">
<path d="M26.4478 61.8938C26.7605 58.7358 24.3344 58.4492 22.2099 58.0029C20.1961 57.5802 18.1439 57.3373 16.0492 56.3117C18.8853 55.5578 21.7132 54.8095 24.5493 54.0556C31.942 52.0765 38.665 48.8988 44.2326 43.4788C57.8877 30.1834 52.3728 6.87378 34.0919 1.66954C22.7004 -1.56498 11.8703 0.902227 1.66244 6.51735C0.950096 6.90756 0.430113 7.64973 0.238035 8.98974C1.32225 8.58493 2.42529 8.22751 3.4907 7.7753C11.2997 4.48959 19.3715 2.74947 27.8706 3.58059C33.303 4.1113 38.1953 6.08848 42.0302 10.038C50.5813 18.8553 49.4505 34.0075 39.873 41.7166C33.1739 47.1191 25.3139 49.6275 16.811 51.4564C18.1356 47.6901 22.83 46.0894 22.6848 40.8091C19.9084 43.5858 17.7431 45.871 15.463 48.0162C13.4806 49.885 11.3341 51.5742 9.3052 53.3897C7.15292 55.309 7.00061 57.0045 9.41021 58.3505C11.7151 59.6451 14.4181 60.3957 17.0409 60.9122C19.9596 61.4992 22.9935 61.5468 26.4592 61.8745L26.4478 61.8938Z" fill="#D0E2EE"/>
</svg>
