<svg width="86" height="78" viewBox="0 0 86 78" fill="none" xmlns="http://www.w3.org/2000/svg">
<path d="M45.2843 24.4606C45.7546 14.1138 54.274 5.60782 64.6209 5.12407C76.2712 4.60001 85.9059 13.8853 85.9059 25.4281C85.9059 25.4281 88.7815 61.2256 62.659 76.9609C61.6243 77.5925 60.4015 76.4369 60.9928 75.3753C64.9971 68.1056 73.4896 51.6581 72.4818 44.5497C70.3318 45.3291 67.9803 45.7591 65.5615 45.7591C54.0321 45.7591 44.7468 36.1244 45.2843 24.4606ZM0.026825 20.2144C0.497139 9.86751 9.01651 1.36157 19.3634 0.877823C31.0271 0.340324 40.6618 9.62563 40.6618 21.1684C40.6618 21.1684 43.5374 56.9659 17.4149 72.7013C16.3803 73.3328 15.1574 72.1772 15.7487 71.1156C19.7531 63.8459 28.2456 47.3984 27.2378 40.29C25.0878 41.0694 22.7362 41.4994 20.3174 41.4994C8.77464 41.5128 -0.510674 31.8781 0.026825 20.2144Z" fill="#EEE1D8"/>
</svg>
