<svg width="48" height="48" viewBox="0 0 48 48" fill="none" xmlns="http://www.w3.org/2000/svg">
<path d="M25.275 15.885C25.5375 10.11 30.2925 5.3625 36.0675 5.0925C42.57 4.8 47.9475 9.9825 47.9475 16.425C47.9475 16.425 49.5525 36.405 34.9725 45.1875C34.395 45.54 33.7125 44.895 34.0425 44.3025C36.2775 40.245 41.0175 31.065 40.455 27.0975C39.255 27.5325 37.9425 27.7725 36.5925 27.7725C30.1575 27.7725 24.975 22.395 25.275 15.885ZM0.0150032 13.515C0.277504 7.74 5.0325 2.9925 10.8075 2.7225C17.3175 2.4225 22.695 7.605 22.695 14.0475C22.695 14.0475 24.3 34.0275 9.72 42.81C9.1425 43.1625 8.46 42.5175 8.79 41.925C11.025 37.8675 15.765 28.6875 15.2025 24.72C14.0025 25.155 12.69 25.395 11.34 25.395C4.8975 25.4025 -0.284996 20.025 0.0150032 13.515Z" fill="#FEF2E7"/>
</svg>
