<svg width="118" height="118" viewBox="0 0 118 118" fill="none" xmlns="http://www.w3.org/2000/svg">
<path d="M71.2136 96.9583C70.2132 96.6609 69.1752 96.5096 68.1316 96.5089C66.3221 96.5021 64.5406 96.9556 62.9546 97.8268C61.9779 96.3727 60.6569 95.1827 59.109 94.3626C57.5612 93.5426 55.8346 93.118 54.083 93.1266C52.7494 93.1259 51.4271 93.3723 50.1833 93.8535C49.7949 92.5293 49.1449 91.2965 48.2717 90.2279C47.3986 89.1594 46.3201 88.2767 45.0999 87.6321L44.865 87.997C44.4106 88.6988 43.8377 89.3164 43.172 89.8223C44.4292 90.3419 45.5195 91.197 46.3237 92.2941C47.128 93.3913 47.6153 94.6884 47.7324 96.0437C47.7498 96.2851 47.8293 96.5179 47.9632 96.7196C48.0971 96.9212 48.2808 97.0848 48.4965 97.1946C48.7123 97.3043 48.9527 97.3565 49.1945 97.346C49.4363 97.3354 49.6713 97.2626 49.8767 97.1346C51.1391 96.3496 52.5964 95.9346 54.083 95.9367C55.5695 95.9215 57.0289 96.3346 58.2869 97.1266C59.5449 97.9186 60.5483 99.056 61.1773 100.403C61.2643 100.596 61.3939 100.767 61.5562 100.902C61.7186 101.038 61.9095 101.136 62.1147 101.187C62.32 101.239 62.5342 101.244 62.7416 101.201C62.9489 101.158 63.1439 101.069 63.312 100.941C64.503 100.038 65.9235 99.4874 67.4119 99.3519C68.9004 99.2163 70.397 99.5012 71.7315 100.174C71.9413 100.28 72.1745 100.332 72.4094 100.324C72.6444 100.317 72.8738 100.25 73.0765 100.131C73.2792 100.012 73.4487 99.844 73.5695 99.6424C73.6904 99.4407 73.7587 99.2119 73.7681 98.977C73.8855 97.38 74.402 95.8381 75.2703 94.4927C76.1386 93.1473 77.3308 92.0415 78.7376 91.2767C77.5189 91.2024 76.3396 90.8171 75.3121 90.1577C73.2539 91.928 71.8174 94.3115 71.2136 96.9583Z" fill="#6296B7"/>
<path d="M44.0018 76.8195L44.3254 75.8485C45.2399 75.847 46.1301 75.5534 46.8661 75.0105C47.6021 74.4677 48.1454 73.7039 48.4169 72.8306L49.6798 68.7235C49.8441 68.1865 49.9008 67.6223 49.8466 67.0634C49.7924 66.5044 49.6284 65.9616 49.364 65.4662C49.0996 64.9708 48.74 64.5324 48.3058 64.1762C47.8716 63.8201 47.3714 63.5532 46.8338 63.3907C45.749 63.061 44.5779 63.1738 43.5759 63.7044C42.574 64.2351 41.8227 65.1405 41.486 66.2231L40.2231 70.3302C39.9689 71.1528 39.9713 72.0333 40.2299 72.8545C40.4885 73.6758 40.991 74.3988 41.6707 74.9273L41.3617 75.8542C40.609 75.8338 39.8638 76.0087 39.1987 76.3618C38.5336 76.7148 37.9713 77.2341 37.5664 77.869L35.1216 81.6663C34.4902 82.6503 34.2718 83.8433 34.5135 84.9872C34.7553 86.131 35.4378 87.1337 36.4133 87.7781C37.1228 88.246 37.9539 88.4956 38.8039 88.496C39.5402 88.4957 40.2647 88.3105 40.9109 87.9575C41.5571 87.6045 42.1044 87.095 42.5026 86.4756L44.9474 82.6782C45.5383 81.7565 45.7686 80.6491 45.5942 79.5682C45.4197 78.4872 44.8528 77.5085 44.0018 76.8195ZM42.5849 81.1573L40.1401 84.9546C40.0285 85.1304 39.8831 85.2823 39.7123 85.4015C39.5415 85.5206 39.3488 85.6046 39.1452 85.6486C38.9417 85.6926 38.7314 85.6957 38.5267 85.6577C38.3219 85.6197 38.1268 85.5414 37.9526 85.4273C37.5958 85.1905 37.3467 84.8224 37.259 84.4032C37.1713 83.9841 37.2522 83.5473 37.4841 83.1873L39.9288 79.39C40.0414 79.2132 40.188 79.0606 40.3602 78.9412C40.5324 78.8217 40.7267 78.7378 40.9317 78.6943C40.9384 78.6929 40.9451 78.6936 40.9518 78.6922C41.122 78.9732 41.386 79.185 41.6973 79.2902C41.8406 79.338 41.9907 79.3624 42.1418 79.3625C42.2693 79.3601 42.3958 79.3403 42.5179 79.3035C42.7161 79.5691 42.8287 79.8887 42.8407 80.2199C42.8526 80.5511 42.7634 80.8781 42.5849 81.1573ZM43.1146 72.4096C43.0781 72.3614 43.0446 72.311 43.0143 72.2587C42.9247 72.0911 42.8692 71.9073 42.8512 71.718C42.8332 71.5288 42.853 71.3378 42.9093 71.1563L44.1722 67.0492C44.26 66.7716 44.4277 66.5261 44.6543 66.3433C44.8809 66.1605 45.1563 66.0486 45.4462 66.0215C45.736 65.9943 46.0274 66.0532 46.284 66.1908C46.5405 66.3284 46.7508 66.5385 46.8886 66.795C46.9783 66.9626 47.0337 67.1464 47.0517 67.3357C47.0697 67.525 47.05 67.7159 46.9936 67.8975L45.7307 72.0046C45.6577 72.239 45.5269 72.4513 45.3505 72.622C45.174 72.7927 44.9575 72.9164 44.7207 72.9816C44.5558 72.7201 44.3079 72.5215 44.0166 72.4178C43.7254 72.3141 43.4077 72.3112 43.1146 72.4096ZM80.4336 77.869C80.0286 77.2342 79.4662 76.715 78.8011 76.3619C78.1361 76.0088 77.3909 75.8338 76.6382 75.854L76.3293 74.9273C77.009 74.3988 77.5115 73.6758 77.7701 72.8546C78.0287 72.0334 78.0311 71.1529 77.7769 70.3303L76.514 66.2232C76.2631 65.4147 75.7786 64.6985 75.1215 64.1648C74.4644 63.6311 73.6642 63.3037 72.8214 63.2238C71.9787 63.1438 71.1311 63.315 70.3855 63.7157C69.6398 64.1165 69.0293 64.7288 68.6309 65.4757C68.3666 65.9695 68.203 66.5109 68.1496 67.0684C68.0963 67.626 68.1543 68.1886 68.3202 68.7235L69.583 72.8306C69.8545 73.7039 70.3979 74.4677 71.1339 75.0106C71.8699 75.5535 72.76 75.8471 73.6746 75.8486L73.9981 76.8192C73.1472 77.5084 72.5803 78.4871 72.4058 79.5681C72.2314 80.6491 72.4617 81.7565 73.0527 82.6783L75.4974 86.4756C75.8092 86.9638 76.2149 87.3853 76.6908 87.7155C77.1667 88.0457 77.7035 88.2781 78.2699 88.3993C78.8364 88.5205 79.4213 88.5279 79.9906 88.4213C80.56 88.3147 81.1025 88.0961 81.5867 87.7781C82.5623 87.1337 83.2447 86.1311 83.4865 84.9872C83.7282 83.8434 83.5098 82.6503 82.8784 81.6664L80.4336 77.869ZM74.9857 72.2587C74.9554 72.311 74.9219 72.3613 74.8854 72.4094C74.5922 72.3111 74.2746 72.314 73.9833 72.4178C73.6921 72.5216 73.4441 72.7201 73.2792 72.9816C73.0425 72.9164 72.8259 72.7928 72.6495 72.6221C72.473 72.4514 72.3423 72.239 72.2693 72.0046L71.0064 67.8975C70.95 67.7159 70.9302 67.525 70.9483 67.3357C70.9663 67.1464 71.0217 66.9626 71.1113 66.795C71.2021 66.6238 71.326 66.4724 71.4758 66.3496C71.6256 66.2267 71.7983 66.1349 71.9839 66.0794C72.357 65.9652 72.7601 66.003 73.1055 66.1846C73.4509 66.3662 73.7105 66.677 73.8278 67.0492L75.0906 71.1562C75.147 71.3378 75.1668 71.5288 75.1488 71.718C75.1307 71.9073 75.0753 72.0911 74.9857 72.2587ZM80.0474 85.427C79.8748 85.5413 79.6811 85.6202 79.4776 85.6585C79.2742 85.6968 79.0651 85.694 78.8628 85.6503C78.6577 85.6068 78.4635 85.5229 78.2913 85.4035C78.1191 85.284 77.9724 85.1314 77.8599 84.9546L75.4151 81.1573C75.2366 80.8781 75.1474 80.5511 75.1593 80.22C75.1713 79.8888 75.2838 79.5691 75.482 79.3035C75.6041 79.3403 75.7307 79.3602 75.8582 79.3626C76.0093 79.3624 76.1594 79.338 76.3027 79.2902C76.614 79.1851 76.878 78.9733 77.0482 78.6923C77.0549 78.6936 77.0616 78.693 77.0683 78.6944C77.2733 78.7378 77.4676 78.8218 77.6398 78.9412C77.812 79.0607 77.9586 79.2132 78.0712 79.39L80.5159 83.1874C80.7478 83.5474 80.8286 83.9841 80.741 84.4033C80.6533 84.8224 80.4041 85.1901 80.0474 85.427Z" fill="#2D4356"/>
<path d="M59 43.5335C59.9727 43.5336 60.9235 43.2453 61.7323 42.705C62.5411 42.1647 63.1715 41.3968 63.5438 40.4982C63.9161 39.5996 64.0136 38.6108 63.8239 37.6568C63.6343 36.7028 63.166 35.8265 62.4782 35.1387C61.7905 34.4509 60.9143 33.9825 59.9603 33.7927C59.0064 33.6029 58.0176 33.7002 57.1189 34.0724C56.2203 34.4446 55.4522 35.0749 54.9118 35.8836C54.3714 36.6923 54.083 37.6431 54.083 38.6158C54.0844 39.9195 54.6029 41.1694 55.5247 42.0913C56.4465 43.0132 57.6963 43.5319 59 43.5335ZM59 36.5082C59.4169 36.5082 59.8244 36.6318 60.171 36.8633C60.5176 37.0948 60.7878 37.424 60.9473 37.8091C61.1069 38.1942 61.1487 38.618 61.0674 39.0268C60.9861 39.4357 60.7854 39.8112 60.4907 40.106C60.1959 40.4008 59.8204 40.6015 59.4116 40.6829C59.0027 40.7642 58.5789 40.7225 58.1938 40.563C57.8087 40.4035 57.4795 40.1333 57.2479 39.7868C57.0163 39.4402 56.8927 39.0327 56.8927 38.6158C56.8933 38.0571 57.1155 37.5214 57.5105 37.1263C57.9056 36.7311 58.4413 36.5089 59 36.5082ZM84.9898 73.0395C84.6172 73.0395 84.2599 73.1876 83.9964 73.4511C83.7329 73.7146 83.5849 74.0719 83.5849 74.4445V78.6597C83.5849 78.8442 83.6213 79.0268 83.6919 79.1973C83.7625 79.3677 83.866 79.5226 83.9964 79.6531C84.1269 79.7835 84.2817 79.887 84.4522 79.9576C84.6226 80.0282 84.8053 80.0645 84.9898 80.0645C85.1743 80.0645 85.357 80.0282 85.5274 79.9576C85.6979 79.887 85.8527 79.7835 85.9832 79.6531C86.1136 79.5226 86.2171 79.3677 86.2877 79.1973C86.3583 79.0268 86.3947 78.8442 86.3947 78.6597V74.4445C86.3947 74.0719 86.2467 73.7146 85.9832 73.4511C85.7197 73.1876 85.3624 73.0395 84.9898 73.0395ZM88.5033 82.1723C88.7803 82.1725 89.051 82.0904 89.2812 81.9363L93.4957 79.1262C93.8048 78.9191 94.0191 78.5979 94.0916 78.233C94.1641 77.8681 94.089 77.4894 93.8826 77.1798C93.6763 76.8703 93.3556 76.6552 92.9909 76.5818C92.6262 76.5083 92.2473 76.5826 91.9372 76.7881L87.7227 79.5982C87.4717 79.7656 87.2812 80.0092 87.1795 80.2932C87.0777 80.5772 87.07 80.8863 87.1576 81.175C87.2451 81.4637 87.4232 81.7165 87.6656 81.8961C87.9079 82.0757 88.2017 82.1726 88.5033 82.1723ZM32.3078 73.0395C31.9352 73.0395 31.5778 73.1876 31.3144 73.4511C31.0509 73.7146 30.9029 74.0719 30.9029 74.4445V78.6597C30.9029 79.0323 31.0509 79.3896 31.3144 79.6531C31.5779 79.9165 31.9352 80.0645 32.3078 80.0645C32.6804 80.0645 33.0377 79.9165 33.3012 79.6531C33.5646 79.3896 33.7126 79.0323 33.7126 78.6597V74.4445C33.7126 74.0719 33.5646 73.7146 33.3012 73.4511C33.0377 73.1876 32.6804 73.0395 32.3078 73.0395ZM23.8018 79.1262L28.0164 81.9363C28.3265 82.1419 28.7054 82.2161 29.0701 82.1426C29.4348 82.0692 29.7555 81.8541 29.9618 81.5446C30.1681 81.235 30.2433 80.8563 30.1707 80.4914C30.0982 80.1265 29.8839 79.8053 29.5749 79.5982L25.3603 76.7881C25.0503 76.5825 24.6713 76.5083 24.3067 76.5818C23.942 76.6552 23.6213 76.8703 23.4149 77.1798C23.2086 77.4894 23.1335 77.8681 23.206 78.233C23.2785 78.5979 23.4928 78.9191 23.8018 79.1262ZM77.2631 37.9133C77.6357 37.9132 77.993 37.7652 78.2565 37.5017C78.52 37.2382 78.668 36.8808 78.668 36.5082V25.2678C78.668 24.8952 78.5199 24.5379 78.2565 24.2744C77.993 24.011 77.6357 23.863 77.2631 23.863C76.8905 23.863 76.5332 24.011 76.2697 24.2744C76.0063 24.5379 75.8583 24.8952 75.8583 25.2678V36.5082C75.8582 36.8808 76.0062 37.2382 76.2697 37.5017C76.5332 37.7652 76.8905 37.9132 77.2631 37.9133Z" fill="#6296B7"/>
<path d="M82.8825 37.9133C83.2551 37.9133 83.6125 37.7652 83.8759 37.5017C84.1394 37.2382 84.2874 36.8809 84.2874 36.5083V30.8881C84.2874 30.7036 84.251 30.5209 84.1804 30.3505C84.1098 30.18 84.0063 30.0251 83.8759 29.8947C83.7454 29.7642 83.5906 29.6608 83.4201 29.5902C83.2497 29.5196 83.067 29.4832 82.8825 29.4832C82.698 29.4832 82.5153 29.5196 82.3449 29.5902C82.1745 29.6608 82.0196 29.7642 81.8891 29.8947C81.7587 30.0251 81.6552 30.18 81.5846 30.3505C81.514 30.5209 81.4777 30.7036 81.4777 30.8881V36.5083C81.4777 36.8809 81.6257 37.2382 81.8891 37.5017C82.1526 37.7652 82.5099 37.9133 82.8825 37.9133Z" fill="#2D4356"/>
<path d="M40.7369 37.9133C41.1095 37.9132 41.4668 37.7652 41.7303 37.5017C41.9937 37.2382 42.1417 36.8808 42.1417 36.5082V25.2678C42.1417 24.8952 41.9937 24.5379 41.7303 24.2744C41.4668 24.011 41.1095 23.863 40.7369 23.863C40.3643 23.863 40.007 24.011 39.7435 24.2744C39.48 24.5379 39.332 24.8952 39.332 25.2678V36.5082C39.332 36.8808 39.48 37.2382 39.7435 37.5017C40.0069 37.7652 40.3643 37.9132 40.7369 37.9133Z" fill="#6296B7"/>
<path d="M36.5223 36.5082V30.888C36.5223 30.7035 36.486 30.5209 36.4154 30.3504C36.3448 30.18 36.2413 30.0251 36.1109 29.8946C35.9804 29.7642 35.8255 29.6607 35.6551 29.5901C35.4847 29.5195 35.302 29.4832 35.1175 29.4832C34.933 29.4832 34.7503 29.5195 34.5799 29.5901C34.4094 29.6607 34.2546 29.7642 34.1241 29.8946C33.9937 30.0251 33.8902 30.18 33.8196 30.3504C33.749 30.5209 33.7126 30.7035 33.7126 30.888V36.5082C33.7126 36.6927 33.749 36.8754 33.8196 37.0458C33.8902 37.2163 33.9937 37.3711 34.1241 37.5016C34.2546 37.632 34.4094 37.7355 34.5799 37.8061C34.7503 37.8767 34.933 37.9131 35.1175 37.9131C35.302 37.9131 35.4847 37.8767 35.6551 37.8061C35.8255 37.7355 35.9804 37.632 36.1109 37.5016C36.2413 37.3711 36.3448 37.2163 36.4154 37.0458C36.486 36.8754 36.5223 36.6927 36.5223 36.5082ZM43.596 56.7205C43.823 56.8396 44.0782 56.8943 44.334 56.8789C44.5898 56.8634 44.8365 56.7783 45.0475 56.6327L50.722 52.7139C51.2821 53.7553 51.9089 54.7593 52.5985 55.7198L50.0393 60.4253C49.9229 60.6393 49.8642 60.8798 49.8689 61.1234C49.8736 61.3669 49.9415 61.605 50.0659 61.8144C50.1903 62.0237 50.3671 62.1972 50.5787 62.3177C50.7904 62.4382 51.0298 62.5015 51.2733 62.5016H53.1644L57.7132 72.9002C57.8226 73.1505 58.0026 73.3634 58.2312 73.5129C58.4597 73.6624 58.7269 73.742 59 73.742C59.2732 73.742 59.5403 73.6624 59.7689 73.5129C59.9975 73.3634 60.1775 73.1505 60.2869 72.9002L64.8357 62.5016H66.7267C66.9703 62.5015 67.2097 62.4382 67.4213 62.3177C67.633 62.1972 67.8097 62.0237 67.9342 61.8144C68.0586 61.605 68.1265 61.3669 68.1312 61.1234C68.1358 60.8798 68.0771 60.6393 67.9608 60.4253L65.4016 55.7198C66.0912 54.7593 66.718 53.7553 67.2781 52.7139L72.9526 56.6327C73.1635 56.7784 73.4101 56.8635 73.6659 56.879C73.9217 56.8945 74.1769 56.8398 74.4038 56.7207C74.6307 56.6016 74.8208 56.4227 74.9533 56.2034C75.0859 55.9841 75.1559 55.7327 75.1559 55.4764C75.1559 55.4764 75.1559 54.5519 75.1422 48.5431C75.1363 46.7477 74.6766 44.983 73.8059 43.4128C72.9352 41.8427 71.6817 40.5182 70.162 39.5623C69.466 26.9913 60.1663 16.7321 60.0317 16.5864C59.8969 16.4497 59.7363 16.3411 59.5592 16.267C59.3821 16.1929 59.192 16.1547 59 16.1547C58.808 16.1547 58.6179 16.1929 58.4408 16.267C58.2637 16.3411 58.1031 16.4497 57.9683 16.5864C57.8337 16.7321 48.5339 26.9913 47.838 39.5623C46.3183 40.5182 45.0648 41.8428 44.1941 43.413C43.3234 44.9832 42.8638 46.748 42.8579 48.5434C42.8442 54.5519 42.8442 55.4764 42.8442 55.4764C42.8441 55.7326 42.9141 55.984 43.0466 56.2033C43.1791 56.4226 43.3691 56.6015 43.596 56.7205ZM59 68.8315L56.2309 62.5016H61.7691L59 68.8315ZM53.6365 59.6915L55.1649 56.8814H62.8351L64.3635 59.6915H53.6365ZM70.1158 43.1635C70.8218 43.871 71.381 44.7111 71.7614 45.6354C72.1418 46.5597 72.3358 47.5501 72.3324 48.5496C72.3365 50.4129 72.3392 51.7867 72.3413 52.7956L68.482 50.13C69.3687 47.9016 69.9193 45.5537 70.1158 43.1635ZM58.9904 19.7149C60.2065 21.257 61.32 22.8773 62.3237 24.5653H55.6014C56.621 22.8743 57.7532 21.2538 58.9904 19.7149ZM54.0483 27.3719C54.0601 27.3722 54.0711 27.3754 54.083 27.3754H63.8602C67.3596 34.3864 69.9279 44.5387 63.1315 54.0713H54.8684C47.992 44.4426 50.5322 34.3453 54.0483 27.3719ZM45.6676 48.5499C45.6625 47.5486 45.8556 46.5562 46.2359 45.6298C46.6161 44.7035 47.1759 43.8615 47.8831 43.1526C48.0789 45.5466 48.6299 47.8982 49.518 50.13L45.6587 52.7956C45.6607 51.7867 45.6635 50.4129 45.6676 48.5499ZM26.768 19.6291C27.1848 19.6291 27.5922 19.5055 27.9387 19.274C28.2852 19.0425 28.5553 18.7134 28.7148 18.3283C28.8743 17.9433 28.916 17.5196 28.8347 17.1109C28.7534 16.7021 28.5527 16.3267 28.258 16.032C27.9633 15.7373 27.5879 15.5366 27.1791 15.4553C26.7704 15.374 26.3467 15.4157 25.9617 15.5752C25.5766 15.7347 25.2475 16.0048 25.016 16.3513C24.7845 16.6978 24.6609 17.1052 24.6609 17.522C24.6615 18.0806 24.8837 18.6162 25.2788 19.0112C25.6738 19.4063 26.2094 19.6285 26.768 19.6291ZM26.768 16.4684C26.9764 16.4684 27.1801 16.5302 27.3534 16.646C27.5266 16.7617 27.6617 16.9263 27.7414 17.1188C27.8211 17.3113 27.842 17.5231 27.8014 17.7275C27.7607 17.9319 27.6604 18.1196 27.513 18.267C27.3657 18.4143 27.1779 18.5147 26.9736 18.5553C26.7692 18.596 26.5574 18.5751 26.3649 18.4953C26.1723 18.4156 26.0078 18.2806 25.892 18.1073C25.7763 17.9341 25.7145 17.7304 25.7145 17.522C25.7147 17.2426 25.8258 16.9748 26.0234 16.7773C26.2209 16.5798 26.4887 16.4687 26.768 16.4684ZM111.756 30.631C111.478 30.631 111.207 30.7133 110.976 30.8677C110.745 31.0221 110.565 31.2415 110.458 31.4981C110.352 31.7548 110.324 32.0373 110.378 32.3098C110.433 32.5823 110.566 32.8326 110.763 33.029C110.959 33.2255 111.21 33.3593 111.482 33.4135C111.755 33.4677 112.037 33.4399 112.294 33.3335C112.55 33.2272 112.77 33.0472 112.924 32.8162C113.079 32.5851 113.161 32.3136 113.161 32.0357C113.16 31.6633 113.012 31.3062 112.749 31.0429C112.486 30.7795 112.129 30.6314 111.756 30.631ZM111.756 32.7381C111.617 32.7381 111.481 32.6969 111.366 32.6197C111.25 32.5425 111.16 32.4328 111.107 32.3045C111.054 32.1762 111.04 32.0349 111.067 31.8987C111.094 31.7624 111.161 31.6373 111.259 31.5391C111.358 31.4408 111.483 31.3739 111.619 31.3468C111.755 31.3197 111.897 31.3336 112.025 31.3868C112.153 31.44 112.263 31.53 112.34 31.6455C112.417 31.761 112.459 31.8968 112.459 32.0357C112.458 32.2219 112.384 32.4005 112.253 32.5322C112.121 32.6639 111.942 32.7379 111.756 32.7381ZM6.24387 7.45238C5.96604 7.45238 5.69444 7.53477 5.46343 7.68913C5.23242 7.84349 5.05237 8.06288 4.94604 8.31957C4.83972 8.57625 4.8119 8.8587 4.8661 9.1312C4.92031 9.4037 5.0541 9.654 5.25056 9.85046C5.44702 10.0469 5.69732 10.1807 5.96982 10.2349C6.24232 10.2891 6.52477 10.2613 6.78145 10.155C7.03814 10.0487 7.25753 9.8686 7.41189 9.63759C7.56625 9.40658 7.64864 9.13498 7.64864 8.85715C7.64821 8.48471 7.50007 8.12765 7.23672 7.8643C6.97337 7.60095 6.61631 7.45281 6.24387 7.45238ZM6.24387 9.55953C6.10496 9.55953 5.96916 9.51833 5.85365 9.44115C5.73815 9.36398 5.64812 9.25428 5.59496 9.12593C5.5418 8.99759 5.52789 8.85637 5.55499 8.72012C5.58209 8.58387 5.64899 8.45872 5.74722 8.36049C5.84545 8.26226 5.9706 8.19536 6.10685 8.16826C6.24309 8.14116 6.38432 8.15507 6.51266 8.20823C6.64101 8.26139 6.7507 8.35142 6.82788 8.46692C6.90506 8.58243 6.94625 8.71823 6.94625 8.85715C6.94607 9.04337 6.87201 9.22192 6.74033 9.3536C6.60865 9.48528 6.4301 9.55934 6.24387 9.55953ZM81.8649 2.10712C81.5871 2.10712 81.3155 2.1895 81.0845 2.34386C80.8534 2.49822 80.6734 2.71761 80.5671 2.9743C80.4607 3.23099 80.4329 3.51344 80.4871 3.78593C80.5413 4.05843 80.6751 4.30874 80.8716 4.5052C81.068 4.70165 81.3184 4.83545 81.5909 4.88965C81.8633 4.94385 82.1458 4.91603 82.4025 4.80971C82.6592 4.70339 82.8786 4.52333 83.0329 4.29232C83.1873 4.06131 83.2697 3.78971 83.2697 3.51188C83.2692 3.13944 83.1211 2.78238 82.8577 2.51903C82.5944 2.25568 82.2373 2.10754 81.8649 2.10712ZM81.8649 4.21426C81.726 4.21426 81.5902 4.17307 81.4747 4.09589C81.3592 4.01871 81.2691 3.90901 81.216 3.78067C81.1628 3.65232 81.1489 3.5111 81.176 3.37485C81.2031 3.2386 81.27 3.11345 81.3682 3.01522C81.4665 2.91699 81.5916 2.8501 81.7279 2.82299C81.8641 2.79589 82.0053 2.8098 82.1337 2.86296C82.262 2.91612 82.3717 3.00615 82.4489 3.12166C82.5261 3.23716 82.5673 3.37296 82.5673 3.51188C82.5671 3.6981 82.493 3.87665 82.3614 4.00833C82.2297 4.14001 82.0511 4.21407 81.8649 4.21426ZM63.7285 10.4269C63.7285 10.149 63.6461 9.87744 63.4917 9.64642C63.3374 9.41541 63.118 9.23536 62.8613 9.12904C62.6046 9.02271 62.3222 8.9949 62.0497 9.0491C61.7772 9.1033 61.5269 9.23709 61.3304 9.43355C61.1339 9.63001 61.0001 9.88032 60.9459 10.1528C60.8917 10.4253 60.9196 10.7078 61.0259 10.9644C61.1322 11.2211 61.3123 11.4405 61.5433 11.5949C61.7743 11.7492 62.0459 11.8316 62.3237 11.8316C62.6961 11.8312 63.0532 11.6831 63.3166 11.4197C63.5799 11.1564 63.7281 10.7993 63.7285 10.4269ZM61.6213 10.4269C61.6213 10.288 61.6625 10.1522 61.7397 10.0366C61.8169 9.92114 61.9266 9.83111 62.0549 9.77795C62.1833 9.72479 62.3245 9.71088 62.4607 9.73798C62.597 9.76508 62.7221 9.83198 62.8204 9.93021C62.9186 10.0284 62.9855 10.1536 63.0126 10.2898C63.0397 10.4261 63.0258 10.5673 62.9726 10.6957C62.9195 10.824 62.8294 10.9337 62.7139 11.0109C62.5984 11.0881 62.4626 11.1292 62.3237 11.1292C62.1375 11.1291 61.9589 11.055 61.8273 10.9233C61.6956 10.7916 61.6215 10.6131 61.6213 10.4269Z" fill="#2D4356"/>
<path d="M11.4509 32.7457L12.4953 31.3726L11.8358 30.9989L11.1657 32.5371H11.1433L10.4619 31.0094L9.79117 31.3943L10.8244 32.7352V32.757L9.20819 32.5484V33.2957L10.8349 33.0871V33.1089L9.79117 34.449L10.417 34.8451L11.132 33.2957H11.1538L11.8133 34.8339L12.5059 34.4385L11.4509 33.1194V33.0976L13.1099 33.2957V32.5484L11.4509 32.7682V32.7457Z" fill="#6296B7"/>
<path d="M44.0962 5.39218L43.4949 6.1641L43.856 6.39167L44.2676 5.49965H44.2802L44.6595 6.38535L45.0584 6.15778L44.4509 5.3985V5.38586L45.4061 5.49965V5.06909L44.4509 5.19552V5.18287L45.0521 4.39199L44.6728 4.17706L44.2865 5.06277H44.2739L43.882 4.18338L43.4949 4.40463L44.0906 5.17655V5.18919L43.1599 5.06909V5.49965L44.0962 5.37954V5.39218Z" fill="#6296B7"/>
<path d="M92.5225 21.5196V20.7863L90.8951 21.0019V20.9808L91.9199 19.633L91.273 19.267L90.6155 20.7757H90.5931L89.9258 19.2776L89.267 19.6547L90.2812 20.9703V20.9914L88.6959 20.7863V21.5196L90.2917 21.3152V21.3362L89.267 22.6511L89.8815 23.0395L90.5825 21.5196H90.6036L91.2505 23.029L91.9304 22.6406L90.8951 21.3468V21.3257L92.5225 21.5196Z" fill="#6296B7"/>
<path d="M106.293 7.86383L107.177 6.70139L106.619 6.38531L106.052 7.68683H106.033L105.457 6.39445L104.889 6.72035L105.763 7.8547V7.87366L104.396 7.69666V8.3288L105.772 8.15251V8.17077L104.889 9.30511L105.419 9.64015L106.024 8.3288H106.042L106.6 9.63032L107.186 9.29598L106.293 8.1799V8.16164L107.697 8.3288V7.69666L106.293 7.88209V7.86383Z" fill="#6296B7"/>
<path d="M1.40476 106.06C2.18059 106.06 2.80952 105.431 2.80952 104.655C2.80952 103.879 2.18059 103.25 1.40476 103.25C0.628933 103.25 0 103.879 0 104.655C0 105.431 0.628933 106.06 1.40476 106.06Z" fill="#2D4356"/>
<path d="M7.7262 103.25H5.61906C5.24649 103.25 4.88918 103.398 4.62574 103.661C4.3623 103.925 4.21429 104.282 4.21429 104.655C4.21429 105.027 4.3623 105.385 4.62574 105.648C4.88918 105.912 5.24649 106.06 5.61906 106.06H7.7262C8.09877 106.06 8.45607 105.912 8.71952 105.648C8.98296 105.385 9.13096 105.027 9.13096 104.655C9.13096 104.282 8.98296 103.925 8.71952 103.661C8.45607 103.398 8.09877 103.25 7.7262 103.25ZM112.381 103.25H110.274C109.901 103.25 109.544 103.398 109.281 103.661C109.017 103.925 108.869 104.282 108.869 104.655C108.869 105.027 109.017 105.385 109.281 105.648C109.544 105.912 109.901 106.06 110.274 106.06H112.381C112.754 106.06 113.111 105.912 113.374 105.648C113.638 105.385 113.786 105.027 113.786 104.655C113.786 104.282 113.638 103.925 113.374 103.661C113.111 103.398 112.754 103.25 112.381 103.25Z" fill="#2D4356"/>
<path d="M116.595 106.06C117.371 106.06 118 105.431 118 104.655C118 103.879 117.371 103.25 116.595 103.25C115.819 103.25 115.19 103.879 115.19 104.655C115.19 105.431 115.819 106.06 116.595 106.06Z" fill="#2D4356"/>
<path d="M82.9891 108.869H77.1539C76.8007 108.897 76.4712 109.058 76.2309 109.318C75.9906 109.578 75.8571 109.92 75.8571 110.274C75.8571 110.628 75.9906 110.969 76.2309 111.23C76.4712 111.49 76.8007 111.65 77.1539 111.679H82.9891C83.3422 111.65 83.6717 111.49 83.912 111.23C84.1523 110.969 84.2858 110.628 84.2858 110.274C84.2858 109.92 84.1523 109.578 83.912 109.318C83.6717 109.058 83.3422 108.897 82.9891 108.869ZM40.8462 108.869H35.011C34.6579 108.897 34.3283 109.058 34.088 109.318C33.8477 109.578 33.7143 109.92 33.7143 110.274C33.7143 110.628 33.8477 110.969 34.088 111.23C34.3283 111.49 34.6579 111.65 35.011 111.679H40.8462C41.1993 111.65 41.5289 111.49 41.7692 111.23C42.0095 110.969 42.1429 110.628 42.1429 110.274C42.1429 109.92 42.0095 109.578 41.7692 109.318C41.5289 109.058 41.1993 108.897 40.8462 108.869ZM73.0476 108.869H44.9524C44.5798 108.869 44.2225 109.017 43.9591 109.28C43.6956 109.544 43.5476 109.901 43.5476 110.274C43.5476 110.646 43.6956 111.004 43.9591 111.267C44.2225 111.531 44.5798 111.679 44.9524 111.679H56.1484V113.083H50.5715C50.1989 113.083 49.8416 113.231 49.5781 113.495C49.3147 113.758 49.1667 114.115 49.1667 114.488C49.1667 114.861 49.3147 115.218 49.5781 115.481C49.8416 115.745 50.1989 115.893 50.5715 115.893H68.131C68.5035 115.893 68.8609 115.745 69.1243 115.481C69.3877 115.218 69.5357 114.861 69.5357 114.488C69.5357 114.115 69.3877 113.758 69.1243 113.495C68.8609 113.231 68.5035 113.083 68.131 113.083H61.8517V111.679H73.0476C73.4202 111.679 73.7775 111.531 74.041 111.267C74.3044 111.004 74.4524 110.646 74.4524 110.274C74.4524 109.901 74.3044 109.544 74.041 109.28C73.7775 109.017 73.4202 108.869 73.0476 108.869Z" fill="#6296B7"/>
<path d="M105.864 103.25H103.684C104.046 102.252 104.038 101.157 103.662 100.164L102.122 96.1315C101.924 95.5977 101.619 95.1097 101.226 94.6974C100.834 94.2851 100.361 93.9571 99.8374 93.7334C99.1004 93.4183 98.2855 93.333 97.4992 93.4886L97.0185 92.7673C97.5265 91.8905 97.7188 90.8662 97.5634 89.8649C97.4079 88.8635 96.9141 87.9457 96.1641 87.2642L93.0601 84.5612C92.6537 84.2014 92.1769 83.9301 91.66 83.7644C91.1431 83.5987 90.5975 83.5423 90.0576 83.5986C89.5074 83.6573 88.9755 83.8299 88.4957 84.1054C88.0158 84.3809 87.5986 84.7533 87.2706 85.1988C86.6165 86.0853 86.3151 87.183 86.4247 88.2792C86.5344 89.3753 87.0473 90.3916 87.8639 91.1309L90.9679 93.834C91.6826 94.4662 92.6033 94.8161 93.5575 94.8181C94.0011 94.8185 94.4416 94.7429 94.8597 94.5945L95.0982 94.9523C94.616 95.5563 94.2993 96.2754 94.1794 97.0389C94.0595 97.8024 94.1404 98.5839 94.4142 99.3067L95.9208 103.25H22.0795L23.5857 99.3067C23.8595 98.5839 23.9405 97.8024 23.8205 97.0389C23.7006 96.2754 23.384 95.5562 22.9018 94.9522L23.1403 94.5945C23.7977 94.8272 24.5055 94.8794 25.19 94.7457C25.8745 94.6119 26.5106 94.2971 27.032 93.834L30.136 91.1309C30.9527 90.3916 31.4656 89.3753 31.5752 88.2791C31.6849 87.183 31.3834 86.0852 30.7294 85.1988C30.4013 84.7532 29.9841 84.3808 29.5043 84.1053C29.0244 83.8298 28.4925 83.6573 27.9423 83.5986C27.4025 83.5424 26.8568 83.5989 26.34 83.7646C25.8232 83.9303 25.3464 84.2015 24.9398 84.5611L21.8358 87.2642C21.0859 87.9457 20.592 88.8635 20.4366 89.8648C20.2811 90.8662 20.4734 91.8905 20.9814 92.7673L20.5008 93.4884C19.7145 93.3327 18.8995 93.4181 18.1626 93.7334C17.639 93.957 17.1665 94.2849 16.7737 94.6971C16.381 95.1093 16.0763 95.5971 15.8783 96.1308L14.3376 100.164C13.9615 101.157 13.9538 102.252 14.3159 103.25H12.1362C11.9364 103.224 11.7332 103.241 11.5404 103.299C11.3476 103.358 11.1695 103.457 11.018 103.59C10.8666 103.723 10.7452 103.887 10.6621 104.07C10.579 104.254 10.5359 104.453 10.5359 104.655C10.5359 104.856 10.579 105.056 10.6621 105.239C10.7452 105.423 10.8666 105.586 11.018 105.719C11.1695 105.852 11.3476 105.952 11.5404 106.01C11.7332 106.069 11.9364 106.086 12.1362 106.06H105.864C106.064 106.086 106.267 106.069 106.46 106.01C106.652 105.952 106.83 105.852 106.982 105.719C107.133 105.586 107.255 105.423 107.338 105.239C107.421 105.056 107.464 104.856 107.464 104.655C107.464 104.453 107.421 104.254 107.338 104.07C107.255 103.887 107.133 103.723 106.982 103.59C106.83 103.457 106.652 103.358 106.46 103.299C106.267 103.241 106.064 103.224 105.864 103.25ZM94.0445 90.8386C93.8539 90.9657 93.6973 91.1374 93.5883 91.3389C93.4794 91.5404 93.4214 91.7655 93.4195 91.9946C93.1945 91.9623 92.9838 91.865 92.8132 91.7147L89.7092 89.0117C89.4235 88.7425 89.246 88.3781 89.2103 87.9872C89.1745 87.5963 89.2829 87.2058 89.5151 86.8893C89.6124 86.7533 89.7369 86.639 89.8808 86.5536C90.0246 86.4682 90.1846 86.4136 90.3506 86.3933C90.3877 86.3895 90.425 86.3875 90.4624 86.3875C90.7405 86.3904 91.008 86.4945 91.2149 86.6804L94.3189 89.3835C94.4867 89.5375 94.6184 89.7266 94.7046 89.9375C94.7909 90.1483 94.8295 90.3755 94.8177 90.603C94.5423 90.6034 94.2733 90.6854 94.0445 90.8386ZM96.9583 97.4516C97.1525 97.5591 97.3694 97.6189 97.5912 97.6261C97.813 97.6333 98.0333 97.5876 98.2339 97.4929C98.4346 97.3982 98.6098 97.2571 98.7452 97.0812C98.8806 96.9054 98.9723 96.6999 99.0126 96.4817C99.2326 96.6488 99.4007 96.875 99.4972 97.1339L101.038 101.167C101.184 101.532 101.187 101.938 101.047 102.305C100.907 102.672 100.635 102.973 100.283 103.149C100.134 103.214 99.9731 103.248 99.8102 103.249C99.6473 103.249 99.4861 103.216 99.3367 103.151C99.1619 103.073 99.0046 102.961 98.8745 102.822C98.7443 102.682 98.6439 102.517 98.5794 102.337L97.0387 98.3036C96.9365 98.0318 96.9088 97.7377 96.9583 97.4516ZM23.681 89.3835L26.785 86.6804C26.9919 86.4945 27.2594 86.3904 27.5375 86.3875C27.5749 86.3875 27.6122 86.3895 27.6493 86.3933C27.8154 86.4136 27.9753 86.4682 28.1192 86.5536C28.263 86.639 28.3875 86.7533 28.4848 86.8893C28.717 87.2058 28.8254 87.5963 28.7896 87.9872C28.7539 88.3781 28.5764 88.7425 28.2907 89.0117L25.1867 91.7147C25.0164 91.8655 24.8056 91.963 24.5805 91.995C24.5775 91.6257 24.429 91.2724 24.1673 91.0119C23.9055 90.7513 23.5516 90.6044 23.1823 90.603C23.1705 90.3756 23.2091 90.1483 23.2953 89.9375C23.3816 89.7267 23.5132 89.5375 23.681 89.3835ZM16.9621 101.167L18.5027 97.1332C18.5994 96.8746 18.7675 96.6486 18.9874 96.4817C19.0273 96.7001 19.1187 96.9059 19.254 97.0819C19.3894 97.258 19.5647 97.3993 19.7655 97.4941C19.9663 97.5889 20.1868 97.6345 20.4087 97.6271C20.6306 97.6197 20.8476 97.5595 21.0417 97.4516C21.0912 97.7377 21.0634 98.0318 20.9612 98.3036L19.4206 102.338C19.3559 102.517 19.2555 102.682 19.1253 102.822C18.9952 102.962 18.838 103.073 18.6633 103.151C18.5138 103.215 18.3526 103.249 18.1898 103.248C18.0269 103.248 17.8658 103.214 17.7166 103.149C17.3652 102.973 17.0926 102.672 16.9528 102.305C16.8131 101.938 16.8164 101.532 16.9621 101.167Z" fill="#2D4356"/>
</svg>
